<?xml version="1.0" encoding="UTF-8" standalone="no"?>
<!-- Generator: Gravit.io -->
<svg xmlns="http://www.w3.org/2000/svg" xmlns:xlink="http://www.w3.org/1999/xlink" style="isolation:isolate" viewBox="0 0 240 64" width="240pt" height="64pt"><defs><clipPath id="_clipPath_ZgL5OwyONwYtDJXBOkrkOXDN7rcIwyYM"><rect width="240" height="64"/></clipPath></defs><g clip-path="url(#_clipPath_ZgL5OwyONwYtDJXBOkrkOXDN7rcIwyYM)"><mask id="_mask_jchL5ullZDUZnRML8EMJT2ZCFLD2DZYj" x="-200%" y="-200%" width="400%" height="400%"><rect x="-200%" y="-200%" width="400%" height="400%" style="fill:white;"/><path d=" M 30.265 37.452 L 25.651 37.452 L 25.651 55.806 L 10.715 55.806 L 10.715 7.784 L 35.153 7.784 L 35.153 7.784 Q 43.185 7.784 47.56 10.723 L 47.56 10.723 L 47.56 10.723 Q 50.466 12.569 51.952 15.577 L 51.952 15.577 L 51.952 15.577 Q 53.439 18.585 53.439 22.208 L 53.439 22.208 L 53.439 22.208 Q 53.439 26.856 51.371 29.881 L 51.371 29.881 L 51.371 29.881 Q 49.304 32.906 44.963 34.888 L 44.963 34.888 L 53.644 55.806 L 37.272 55.806 L 30.265 37.452 L 30.265 37.452 Z  M 31.598 18.004 L 25.651 18.004 L 25.651 27.164 L 31.017 27.164 L 31.017 27.164 Q 32.453 27.164 33.513 27.01 L 33.513 27.01 L 33.513 27.01 Q 34.572 26.856 35.717 26.412 L 35.717 26.412 L 35.717 26.412 Q 36.862 25.968 37.477 24.993 L 37.477 24.993 L 37.477 24.993 Q 38.093 24.019 38.093 22.55 L 38.093 22.55 L 38.093 22.55 Q 38.093 21.319 37.494 20.277 L 37.494 20.277 L 37.494 20.277 Q 36.896 19.234 35.803 18.653 L 35.803 18.653 L 35.803 18.653 Q 34.47 18.004 31.598 18.004 L 31.598 18.004 L 31.598 18.004 Z  M 81.406 7.784 L 96.103 7.784 L 96.103 55.806 L 81.406 55.806 L 81.406 37.11 L 70.093 37.11 L 70.093 55.806 L 55.361 55.806 L 55.361 7.784 L 70.093 7.784 L 70.093 25.489 L 81.406 25.489 L 81.406 7.784 L 81.406 7.784 Z  M 100.315 7.784 L 115.149 7.784 L 115.149 55.806 L 100.315 55.806 L 100.315 7.784 L 100.315 7.784 Z  M 152.447 7.784 L 171.827 7.784 L 171.827 55.806 L 158.121 55.806 L 158.121 21.49 L 157.984 21.49 L 149.234 55.806 L 139.869 55.806 L 130.811 21.49 L 130.675 21.49 L 130.675 55.806 L 119.635 55.806 L 119.635 7.784 L 138.878 7.784 L 145.748 33.282 L 145.885 33.282 L 152.447 7.784 L 152.447 7.784 Z  M 190.941 44.322 L 212.577 44.322 L 212.577 55.806 L 176.517 55.806 L 176.517 7.784 L 212.577 7.784 L 212.577 18.858 L 190.941 18.858 L 190.941 25.831 L 208.441 25.831 L 208.441 36.563 L 190.941 36.563 L 190.941 44.322 L 190.941 44.322 Z  M 215.729 42.989 L 229.094 42.989 L 229.094 55.806 L 215.729 55.806 L 215.729 42.989 L 215.729 42.989 Z " fill="black" stroke="none"/></mask><path d=" M 30.265 37.452 L 25.651 37.452 L 25.651 55.806 L 10.715 55.806 L 10.715 7.784 L 35.153 7.784 L 35.153 7.784 Q 43.185 7.784 47.56 10.723 L 47.56 10.723 L 47.56 10.723 Q 50.466 12.569 51.952 15.577 L 51.952 15.577 L 51.952 15.577 Q 53.439 18.585 53.439 22.208 L 53.439 22.208 L 53.439 22.208 Q 53.439 26.856 51.371 29.881 L 51.371 29.881 L 51.371 29.881 Q 49.304 32.906 44.963 34.888 L 44.963 34.888 L 53.644 55.806 L 37.272 55.806 L 30.265 37.452 L 30.265 37.452 Z  M 31.598 18.004 L 25.651 18.004 L 25.651 27.164 L 31.017 27.164 L 31.017 27.164 Q 32.453 27.164 33.513 27.01 L 33.513 27.01 L 33.513 27.01 Q 34.572 26.856 35.717 26.412 L 35.717 26.412 L 35.717 26.412 Q 36.862 25.968 37.477 24.993 L 37.477 24.993 L 37.477 24.993 Q 38.093 24.019 38.093 22.55 L 38.093 22.55 L 38.093 22.55 Q 38.093 21.319 37.494 20.277 L 37.494 20.277 L 37.494 20.277 Q 36.896 19.234 35.803 18.653 L 35.803 18.653 L 35.803 18.653 Q 34.47 18.004 31.598 18.004 L 31.598 18.004 L 31.598 18.004 Z  M 81.406 7.784 L 96.103 7.784 L 96.103 55.806 L 81.406 55.806 L 81.406 37.11 L 70.093 37.11 L 70.093 55.806 L 55.361 55.806 L 55.361 7.784 L 70.093 7.784 L 70.093 25.489 L 81.406 25.489 L 81.406 7.784 L 81.406 7.784 Z  M 100.315 7.784 L 115.149 7.784 L 115.149 55.806 L 100.315 55.806 L 100.315 7.784 L 100.315 7.784 Z  M 152.447 7.784 L 171.827 7.784 L 171.827 55.806 L 158.121 55.806 L 158.121 21.49 L 157.984 21.49 L 149.234 55.806 L 139.869 55.806 L 130.811 21.49 L 130.675 21.49 L 130.675 55.806 L 119.635 55.806 L 119.635 7.784 L 138.878 7.784 L 145.748 33.282 L 145.885 33.282 L 152.447 7.784 L 152.447 7.784 Z  M 190.941 44.322 L 212.577 44.322 L 212.577 55.806 L 176.517 55.806 L 176.517 7.784 L 212.577 7.784 L 212.577 18.858 L 190.941 18.858 L 190.941 25.831 L 208.441 25.831 L 208.441 36.563 L 190.941 36.563 L 190.941 44.322 L 190.941 44.322 Z  M 215.729 42.989 L 229.094 42.989 L 229.094 55.806 L 215.729 55.806 L 215.729 42.989 L 215.729 42.989 Z " fill="rgb(255,255,0)"/><path d=" M 30.265 37.452 L 25.651 37.452 L 25.651 55.806 L 10.715 55.806 L 10.715 7.784 L 35.153 7.784 L 35.153 7.784 Q 43.185 7.784 47.56 10.723 L 47.56 10.723 L 47.56 10.723 Q 50.466 12.569 51.952 15.577 L 51.952 15.577 L 51.952 15.577 Q 53.439 18.585 53.439 22.208 L 53.439 22.208 L 53.439 22.208 Q 53.439 26.856 51.371 29.881 L 51.371 29.881 L 51.371 29.881 Q 49.304 32.906 44.963 34.888 L 44.963 34.888 L 53.644 55.806 L 37.272 55.806 L 30.265 37.452 L 30.265 37.452 Z  M 31.598 18.004 L 25.651 18.004 L 25.651 27.164 L 31.017 27.164 L 31.017 27.164 Q 32.453 27.164 33.513 27.01 L 33.513 27.01 L 33.513 27.01 Q 34.572 26.856 35.717 26.412 L 35.717 26.412 L 35.717 26.412 Q 36.862 25.968 37.477 24.993 L 37.477 24.993 L 37.477 24.993 Q 38.093 24.019 38.093 22.55 L 38.093 22.55 L 38.093 22.55 Q 38.093 21.319 37.494 20.277 L 37.494 20.277 L 37.494 20.277 Q 36.896 19.234 35.803 18.653 L 35.803 18.653 L 35.803 18.653 Q 34.47 18.004 31.598 18.004 L 31.598 18.004 L 31.598 18.004 Z  M 81.406 7.784 L 96.103 7.784 L 96.103 55.806 L 81.406 55.806 L 81.406 37.11 L 70.093 37.11 L 70.093 55.806 L 55.361 55.806 L 55.361 7.784 L 70.093 7.784 L 70.093 25.489 L 81.406 25.489 L 81.406 7.784 L 81.406 7.784 Z  M 100.315 7.784 L 115.149 7.784 L 115.149 55.806 L 100.315 55.806 L 100.315 7.784 L 100.315 7.784 Z  M 152.447 7.784 L 171.827 7.784 L 171.827 55.806 L 158.121 55.806 L 158.121 21.49 L 157.984 21.49 L 149.234 55.806 L 139.869 55.806 L 130.811 21.49 L 130.675 21.49 L 130.675 55.806 L 119.635 55.806 L 119.635 7.784 L 138.878 7.784 L 145.748 33.282 L 145.885 33.282 L 152.447 7.784 L 152.447 7.784 Z  M 190.941 44.322 L 212.577 44.322 L 212.577 55.806 L 176.517 55.806 L 176.517 7.784 L 212.577 7.784 L 212.577 18.858 L 190.941 18.858 L 190.941 25.831 L 208.441 25.831 L 208.441 36.563 L 190.941 36.563 L 190.941 44.322 L 190.941 44.322 Z  M 215.729 42.989 L 229.094 42.989 L 229.094 55.806 L 215.729 55.806 L 215.729 42.989 L 215.729 42.989 Z " fill="rgb(255,255,0)" mask="url(#_mask_jchL5ullZDUZnRML8EMJT2ZCFLD2DZYj)" vector-effect="non-scaling-stroke" stroke-width="2" stroke="rgb(0,0,0)" stroke-linejoin="miter" stroke-linecap="square" stroke-miterlimit="3"/></g></svg>