<?xml version="1.0" encoding="UTF-8" standalone="no"?>
<!-- Generator: Gravit.io -->
<svg xmlns="http://www.w3.org/2000/svg" xmlns:xlink="http://www.w3.org/1999/xlink" style="isolation:isolate" viewBox="0 0 211 130" width="211pt" height="130pt"><defs><clipPath id="_clipPath_fXiwMVqVYvDlVR5yTO2dyRBzc7enfpp2"><rect width="211" height="130"/></clipPath></defs><g clip-path="url(#_clipPath_fXiwMVqVYvDlVR5yTO2dyRBzc7enfpp2)"><rect width="211" height="130" style="fill:rgb(114,38,61)" fill-opacity="0"/><rect x="0" y="0" width="211" height="130" transform="matrix(1,0,0,1,0,0)" fill="rgb(114,38,61)"/><path d=" M 109.947 5 L 110.245 5.326 C 110.245 5.326 106.315 9.334 110.43 14.225 L 122.097 25.69 C 126.484 30.738 126.484 38.577 121.373 43.679 L 114.259 50.643 C 109.971 54.332 102.126 55.124 96.743 50.206 L 89.417 42.865 C 85.634 38.667 84.85 31.311 88.86 26.194 C 90.096 24.679 98.024 16.848 98.024 16.848 L 98.277 17.09 C 93.439 21.797 93.776 28.694 97.889 32.766 C 102.053 36.892 112.857 47.432 112.857 47.432 C 114.026 46.486 116.421 39.385 112.224 34.831 L 104.702 27.399 C 101.068 23.277 99.905 16.031 104.581 10.426 L 109.947 5 Z  M 105.855 78.619 L 94.181 78.619 L 92.703 64.39 L 77.585 59.627 L 105.855 59.627 L 134.005 59.627 L 118.886 64.45 L 117.349 78.619 L 105.855 78.619 Z  M 136.582 55.549 L 136.582 58.259 L 75.022 58.259 L 75.022 55.549 L 136.582 55.549 Z  M 79.504 109.316 C 79.504 109.789 79.365 110.262 78.808 110.262 C 78.442 110.262 78.226 109.771 78.068 109.411 C 78.035 109.334 78.004 109.264 77.974 109.205 C 77.39 108.009 76.945 107.175 75.805 106.341 C 74.748 105.59 73.525 105.228 72.218 105.228 C 69.771 105.228 68.019 106.23 66.489 108.12 C 64.988 109.956 64.292 111.986 64.292 114.35 C 64.292 116.352 64.849 118.855 66.017 120.523 C 67.463 122.553 69.632 123.415 72.051 123.415 C 74.498 123.415 76.194 122.441 77.919 120.718 C 77.974 120.662 78.03 120.599 78.089 120.534 C 78.325 120.27 78.596 119.967 78.975 119.967 C 79.337 119.967 79.587 120.273 79.587 120.634 C 79.587 121.552 77.501 123.137 76.806 123.555 C 75.305 124.5 73.386 125 71.606 125 C 66.044 125 61.456 120.884 61.456 115.184 C 61.456 109.177 66.156 103.81 72.329 103.81 C 74.192 103.81 75.972 104.255 77.64 105.117 L 77.706 105.155 L 77.786 105.199 L 77.788 105.2 L 77.788 105.2 L 77.788 105.2 C 78.22 105.444 78.948 105.853 79.17 106.174 C 79.42 106.535 79.476 106.925 79.504 107.314 L 79.504 109.316 Z  M 94.143 112.571 C 94.143 114.222 93.747 115.961 92.778 117.304 C 91.722 118.735 90.137 119.638 88.353 119.638 C 86.592 119.638 85.095 118.735 84.127 117.326 C 83.136 115.895 82.762 114.156 82.762 112.461 C 82.762 110.81 83.114 109.137 84.016 107.75 C 84.985 106.209 86.548 105.174 88.397 105.174 C 90.137 105.174 91.744 106.077 92.756 107.486 C 93.769 108.894 94.143 110.854 94.143 112.571 Z  M 80.516 112.483 C 80.516 114.728 81.111 116.798 82.674 118.449 C 84.149 119.99 86.13 120.783 88.243 120.783 C 93.043 120.783 96.389 117.194 96.389 112.461 C 96.389 110.215 95.75 108.058 94.165 106.429 C 92.646 104.844 90.577 104.007 88.397 104.007 C 83.576 104.007 80.516 107.838 80.516 112.483 Z  M 99.445 117.899 C 99.445 117.96 99.442 118.026 99.439 118.096 C 99.426 118.426 99.41 118.821 99.665 119.021 C 100.022 119.285 100.83 119.307 101.359 119.322 C 101.45 119.324 101.532 119.326 101.602 119.33 L 102.791 119.33 L 105.212 119.197 C 106.269 119.043 106.621 118.933 107.458 118.295 C 107.491 118.271 107.53 118.239 107.573 118.203 L 107.574 118.203 C 107.768 118.045 108.057 117.811 108.273 117.811 C 108.537 117.811 108.647 118.009 108.647 118.251 C 108.647 118.427 108.361 119.836 108.273 120.012 C 108.069 120.459 107.66 120.456 107.251 120.453 L 107.194 120.453 L 107.15 120.452 L 96.979 120.452 C 96.627 120.452 96.209 120.43 96.209 119.946 C 96.209 119.611 96.408 119.535 96.674 119.433 L 96.715 119.418 C 97.469 119.132 97.468 119.017 97.464 118.302 C 97.464 118.245 97.463 118.184 97.463 118.119 L 97.463 105.879 C 97.463 105.561 97.055 105.467 96.77 105.402 L 96.737 105.394 L 96.702 105.385 C 96.385 105.301 96.098 105.225 96.098 104.822 C 96.098 104.338 96.517 104.338 96.891 104.338 L 99.885 104.338 L 99.927 104.338 C 99.944 104.338 99.962 104.338 99.979 104.338 C 99.996 104.338 100.024 104.338 100.066 104.338 L 104.219 104.338 C 104.593 104.338 105.011 104.36 105.011 104.822 C 105.011 105.156 104.818 105.227 104.573 105.317 L 104.536 105.33 L 104.5 105.344 L 104.483 105.35 C 103.763 105.622 103.765 105.74 103.776 106.371 C 103.777 106.454 103.778 106.546 103.778 106.649 L 103.778 111.201 L 103.778 114.495 C 103.778 114.556 103.776 114.623 103.773 114.692 C 103.76 115.022 103.744 115.418 103.999 115.618 C 104.343 115.872 104.516 115.901 104.837 115.957 C 104.906 115.969 104.981 115.982 105.067 115.998 L 106.939 115.866 C 107.996 115.64 108.348 115.53 109.185 114.891 C 109.203 114.878 109.223 114.862 109.245 114.844 L 109.3 114.799 L 109.3 114.799 L 109.301 114.799 L 109.301 114.799 C 109.495 114.641 109.784 114.407 109.999 114.407 C 110.264 114.407 110.374 114.605 110.374 114.847 C 110.374 115.023 110.087 116.432 109.999 116.608 C 109.796 117.055 109.386 117.052 108.978 117.049 C 108.944 117.049 108.91 117.049 108.877 117.049 L 105.026 117.049 L 101.313 117.049 C 100.961 117.049 100.542 117.027 100.542 116.542 C 100.542 116.207 100.742 116.131 101.007 116.03 L 101.049 116.014 C 101.803 115.729 101.802 115.613 101.798 114.899 C 101.798 114.842 101.797 114.781 101.797 114.715 L 101.797 111.201 L 101.797 105.879 C 101.797 105.561 101.389 105.467 101.103 105.402 L 101.071 105.394 L 101.035 105.385 C 100.842 105.334 100.66 105.285 100.547 105.164 C 100.469 105.233 100.36 105.272 100.239 105.317 L 100.238 105.317 C 100.209 105.328 100.18 105.339 100.149 105.35 C 99.43 105.622 99.432 105.74 99.442 106.371 C 99.443 106.425 99.444 106.484 99.444 106.547 C 99.445 106.58 99.445 106.614 99.445 106.649 L 99.445 117.899 Z  M 120.84 112.351 L 112.934 112.351 L 112.934 116.666 C 112.934 118.471 113.11 119.308 114.871 119.308 L 118.173 119.308 C 119.296 119.308 120.067 118.823 120.837 118.097 C 120.873 118.065 120.913 118.027 120.956 117.986 C 121.153 117.798 121.417 117.546 121.652 117.546 C 121.873 117.546 122.004 117.722 122.004 117.921 C 122.004 118.194 121.922 118.619 121.852 118.984 C 121.826 119.118 121.802 119.244 121.784 119.351 C 121.769 119.436 121.756 119.514 121.744 119.586 C 121.67 120.018 121.634 120.23 121.508 120.336 C 121.388 120.438 121.185 120.442 120.786 120.45 L 120.683 120.452 L 110.424 120.452 C 110.072 120.452 109.654 120.43 109.654 119.946 C 109.654 119.594 109.896 119.506 110.182 119.418 C 110.959 119.172 110.958 119.003 110.953 118.294 C 110.953 118.239 110.953 118.181 110.953 118.119 L 110.953 106.495 C 110.953 105.967 110.887 105.482 110.248 105.372 L 110.214 105.363 C 109.919 105.279 109.654 105.204 109.654 104.822 C 109.654 104.36 110.072 104.337 110.446 104.337 L 120.199 104.337 C 120.749 104.47 120.925 104.954 120.991 105.394 L 121.168 106.737 C 121.146 106.957 121.014 107.089 120.793 107.089 C 120.618 107.089 120.507 107.023 120.419 106.913 C 119.825 106.165 118.878 105.482 117.909 105.482 L 114.365 105.482 C 113.264 105.482 112.846 105.923 112.934 107.199 L 112.934 111.206 L 120.95 111.206 C 121.625 107.03 125.179 104.007 129.552 104.007 C 130.983 104.007 132.943 104.382 134.219 105.086 C 135.244 105.657 135.246 106.14 135.251 107.165 C 135.251 107.286 135.252 107.415 135.254 107.552 C 135.256 107.575 135.258 107.601 135.26 107.629 C 135.289 107.977 135.347 108.674 134.857 108.674 C 134.594 108.674 134.462 108.411 134.351 108.191 L 134.351 108.19 C 133.977 107.331 133.515 106.539 132.722 106.011 C 131.797 105.416 130.586 105.13 129.508 105.13 C 125.369 105.13 123.08 108.983 123.08 112.747 C 123.08 114.53 123.608 116.203 124.797 117.546 C 126.008 118.911 127.791 119.66 129.618 119.66 C 130.652 119.66 132.106 119.418 132.943 118.757 C 133.911 117.987 133.955 115.485 133.955 114.34 C 133.955 112.557 133.69 112.381 131.929 112.293 C 131.6 112.293 128.999 112.249 128.692 112.161 C 128.471 112.073 128.405 111.897 128.405 111.677 C 128.405 111.478 128.515 111.346 128.692 111.28 C 128.948 111.201 131.373 111.211 132.072 111.214 L 132.238 111.214 L 133.735 111.214 C 134.219 111.214 135.254 111.258 135.672 111.368 C 135.937 111.434 136.024 111.544 136.024 111.831 L 135.981 112.315 L 135.782 114.803 C 135.782 115.441 135.827 117.238 135.959 117.855 C 135.981 117.965 136.002 118.141 136.002 118.229 C 136.002 118.955 134.417 119.66 133.845 119.902 C 132.391 120.474 131.138 120.783 129.552 120.783 C 127.373 120.783 125.149 120.21 123.454 118.735 C 121.693 117.194 120.835 114.971 120.835 112.659 C 120.835 112.556 120.836 112.453 120.84 112.351 Z  M 139.124 116.666 C 139.124 118.471 139.3 119.308 141.061 119.308 L 144.363 119.308 C 145.487 119.308 146.256 118.823 147.027 118.097 C 147.053 118.074 147.082 118.047 147.112 118.018 L 147.146 117.986 C 147.343 117.798 147.607 117.546 147.842 117.546 C 148.061 117.546 148.194 117.722 148.194 117.921 C 148.194 118.193 148.112 118.616 148.042 118.979 L 148.042 118.979 C 148.016 119.115 147.991 119.243 147.973 119.351 C 147.958 119.435 147.945 119.513 147.933 119.584 C 147.859 120.017 147.823 120.23 147.698 120.336 C 147.577 120.438 147.374 120.442 146.976 120.45 L 146.873 120.452 L 136.614 120.452 C 136.262 120.452 135.843 120.43 135.843 119.946 C 135.843 119.594 136.086 119.506 136.371 119.418 C 137.148 119.172 137.147 119.003 137.143 118.294 C 137.142 118.239 137.142 118.181 137.142 118.119 L 137.142 106.495 C 137.142 105.967 137.076 105.482 136.437 105.372 L 136.403 105.362 C 136.109 105.279 135.843 105.203 135.843 104.822 C 135.843 104.36 136.262 104.337 136.636 104.337 L 146.389 104.337 C 146.939 104.47 147.115 104.954 147.181 105.394 L 147.357 106.737 C 147.335 106.957 147.203 107.089 146.983 107.089 C 146.806 107.089 146.696 107.023 146.609 106.913 C 146.015 106.165 145.067 105.482 144.099 105.482 L 140.555 105.482 C 139.454 105.482 139.035 105.923 139.124 107.199 L 139.124 111.206 L 143.35 111.206 C 143.945 111.206 144.363 111.184 144.826 110.766 C 144.847 110.745 144.866 110.724 144.885 110.705 C 145.006 110.578 145.1 110.48 145.31 110.48 C 145.822 110.48 145.778 111.41 145.757 111.88 L 145.757 111.881 C 145.753 111.956 145.75 112.019 145.75 112.065 L 145.752 112.102 C 145.774 112.534 145.8 113.033 145.222 113.033 C 145.023 113.033 144.869 112.879 144.738 112.747 C 144.297 112.351 144.033 112.351 143.461 112.351 L 139.124 112.351 L 139.124 116.666 Z  M 6.839 85.18 C 6.839 83.156 8.426 82.25 10.299 82.195 C 13.356 82.199 19.672 82.209 20.061 82.209 C 21.034 82.209 21.029 82.625 21.02 83.342 C 21.019 83.412 21.019 83.484 21.019 83.558 L 21.019 94.473 L 21.019 94.568 L 21.019 94.646 C 21.023 95.35 21.024 95.535 20.257 95.757 C 19.952 95.844 19.691 95.931 19.691 96.279 C 19.691 96.737 20.104 96.78 20.474 96.78 L 23.5 96.78 C 23.87 96.78 24.283 96.758 24.283 96.279 C 24.283 95.935 24.038 95.854 23.74 95.757 L 23.674 95.735 C 23.647 95.727 23.619 95.719 23.591 95.71 L 23.59 95.71 L 23.589 95.71 L 23.589 95.71 C 23.315 95.629 22.977 95.53 22.977 95.235 L 22.977 83.689 L 22.977 83.587 C 22.976 82.636 22.975 82.209 24.153 82.209 C 24.675 82.209 25.524 82.318 26.024 82.47 C 26.765 82.69 27.063 82.929 27.597 83.354 C 27.644 83.392 27.693 83.431 27.744 83.471 L 27.771 83.496 C 27.789 83.512 27.807 83.529 27.825 83.546 C 28.005 83.711 28.217 83.907 28.462 83.907 C 28.723 83.907 28.854 83.689 28.854 83.45 C 28.854 83.276 28.81 83.058 28.767 82.884 C 28.763 82.856 28.758 82.82 28.752 82.777 C 28.692 82.339 28.531 81.177 28.353 80.979 C 28.262 80.888 28.14 80.873 28.013 80.858 C 27.989 80.855 27.964 80.852 27.94 80.848 L 10.133 80.848 L 10.105 80.874 C 8.832 80.917 7.639 81.184 6.536 81.99 C 5.272 83.035 4.474 84.547 4.474 86.197 C 4.474 90.096 7.924 90.877 11.173 91.612 C 14.062 92.265 16.791 92.883 16.791 95.626 C 16.791 98.513 14.042 99.915 11.485 99.915 C 10.083 99.915 8.681 99.585 7.498 98.815 C 6.481 98.156 5.959 97.331 5.382 96.314 C 5.162 95.929 4.914 95.572 4.447 95.572 C 3.952 95.572 3.704 96.011 3.704 96.451 C 3.704 97.744 5.107 99.228 6.069 99.943 C 7.526 100.987 9.368 101.345 11.155 101.345 C 13.134 101.345 15.059 100.905 16.626 99.64 C 18 98.513 18.908 96.809 18.908 94.994 C 18.908 93.4 18.22 91.888 16.956 90.87 C 15.884 90.046 14.289 89.606 12.997 89.303 L 10.495 88.726 C 8.598 88.259 6.839 87.406 6.839 85.18 Z  M 25.913 94.625 C 25.282 94.625 24.76 95.104 24.76 95.757 C 24.76 96.432 25.239 96.954 25.913 96.954 C 26.523 96.954 27.089 96.454 27.089 95.823 C 27.089 95.148 26.588 94.625 25.913 94.625 Z  M 40.481 98.981 C 40.481 99.353 40.908 99.479 41.254 99.581 L 41.314 99.599 L 41.361 99.613 L 41.421 99.633 L 41.446 99.641 C 41.821 99.764 42.131 99.865 42.131 100.3 C 42.131 100.905 41.609 100.933 41.141 100.933 L 37.32 100.933 C 36.852 100.933 36.33 100.878 36.33 100.3 C 36.33 99.86 36.66 99.75 37.045 99.64 C 38.014 99.36 38.013 99.126 38.008 98.237 C 38.008 98.168 38.007 98.095 38.007 98.018 L 38.007 83.915 C 38.007 83.821 38.008 83.73 38.009 83.643 L 38.009 83.642 L 38.009 83.642 L 38.009 83.642 C 38.02 82.736 38.026 82.211 36.797 82.211 C 36.11 82.211 35.176 82.348 34.516 82.485 C 33.388 82.733 32.894 83.145 32.041 83.86 C 32 83.896 31.956 83.938 31.908 83.984 L 31.908 83.984 C 31.698 84.183 31.43 84.437 31.162 84.437 C 30.777 84.437 30.612 84.135 30.612 83.805 C 30.612 83.65 30.639 83.494 30.665 83.348 C 30.676 83.288 30.686 83.229 30.694 83.173 C 30.702 83.118 30.71 83.032 30.721 82.925 C 30.784 82.269 30.925 80.808 31.492 80.808 L 46.75 80.808 C 46.78 80.813 46.811 80.817 46.842 80.82 C 47.002 80.839 47.156 80.858 47.272 80.973 C 47.519 81.248 47.739 82.678 47.794 83.063 C 47.849 83.283 47.904 83.558 47.904 83.778 C 47.904 84.08 47.739 84.355 47.409 84.355 C 47.1 84.355 46.832 84.108 46.605 83.899 C 46.57 83.866 46.536 83.835 46.502 83.805 C 46.438 83.754 46.376 83.705 46.317 83.657 C 45.643 83.12 45.265 82.818 44.33 82.54 C 43.698 82.348 42.626 82.211 41.966 82.211 C 40.479 82.211 40.48 82.749 40.481 83.951 L 40.481 84.08 L 40.481 98.981 Z  M 46.746 99.832 C 46.49 99.747 46.211 99.655 46.211 99.387 L 46.211 92.836 L 55.134 92.836 L 55.134 98.625 C 55.134 98.685 55.134 98.741 55.134 98.794 L 55.134 98.795 C 55.139 99.502 55.14 99.687 54.35 99.91 C 54.067 99.997 53.806 100.084 53.806 100.432 C 53.806 100.911 54.22 100.933 54.59 100.933 L 57.659 100.933 C 58.007 100.933 58.42 100.911 58.42 100.432 C 58.42 100.214 58.239 100.133 58.053 100.049 L 58.053 100.049 L 58.053 100.049 C 58.015 100.032 57.978 100.015 57.942 99.997 L 57.746 99.888 L 57.506 99.779 C 57.202 99.648 57.093 99.518 57.093 99.191 L 57.093 87.308 C 57.093 87.249 57.092 87.193 57.092 87.139 L 57.092 87.139 C 57.088 86.431 57.087 86.247 57.876 86.024 C 58.181 85.937 58.42 85.85 58.42 85.48 C 58.42 85.023 58.007 85.001 57.659 85.001 L 54.568 85.001 C 54.22 85.001 53.806 85.023 53.806 85.48 C 53.806 85.836 54.057 85.922 54.332 86.016 C 54.359 86.026 54.388 86.036 54.416 86.046 L 54.42 86.047 C 54.724 86.112 55.134 86.199 55.134 86.525 L 55.134 91.704 L 46.211 91.704 L 46.211 87.308 L 46.211 87.181 C 46.209 86.422 46.208 86.272 46.973 86.024 L 47.026 86.003 C 47.285 85.905 47.495 85.826 47.495 85.48 C 47.495 85.023 47.082 85.001 46.733 85.001 L 43.73 85.001 C 43.382 85.001 42.925 85.001 42.925 85.48 C 42.925 85.831 43.186 85.92 43.46 86.012 L 43.501 86.027 C 43.519 86.033 43.538 86.039 43.556 86.046 C 43.592 86.057 43.63 86.068 43.67 86.079 C 43.938 86.154 44.252 86.243 44.252 86.546 L 44.252 98.625 L 44.253 98.725 L 44.253 98.796 L 44.253 98.797 L 44.253 98.798 L 44.253 98.798 L 44.253 98.798 C 44.257 99.503 44.258 99.687 43.491 99.91 C 43.186 99.997 42.925 100.084 42.925 100.432 C 42.925 100.911 43.36 100.933 43.708 100.933 L 46.712 100.933 C 47.082 100.933 47.495 100.911 47.495 100.432 C 47.495 100.092 47.257 100.009 46.982 99.914 C 46.957 99.905 46.932 99.897 46.907 99.888 C 46.857 99.868 46.802 99.85 46.747 99.832 L 46.746 99.832 Z  M 69.986 97.82 C 70.943 96.492 71.335 94.773 71.335 93.141 C 71.335 91.443 70.965 89.506 69.964 88.113 C 68.963 86.72 67.374 85.828 65.654 85.828 C 63.826 85.828 62.281 86.851 61.323 88.374 C 60.431 89.746 60.083 91.4 60.083 93.032 C 60.083 94.708 60.453 96.427 61.432 97.842 C 62.39 99.235 63.87 100.127 65.611 100.127 C 67.374 100.127 68.941 99.235 69.986 97.82 Z  M 59.996 98.952 C 58.45 97.32 57.863 95.274 57.863 93.054 C 57.863 88.461 60.888 84.674 65.654 84.674 C 67.809 84.674 69.855 85.501 71.357 87.068 C 72.924 88.679 73.555 90.812 73.555 93.032 C 73.555 97.711 70.247 101.259 65.502 101.259 C 63.413 101.259 61.454 100.475 59.996 98.952 Z  M 86.109 85.915 L 83.998 90.921 L 81.582 95.927 L 77.491 86.155 C 77.459 86.084 77.428 86.001 77.394 85.912 C 77.242 85.507 77.044 84.983 76.598 85.001 L 73.703 85.001 C 73.377 85.001 73.116 85.132 73.116 85.48 C 73.116 85.811 73.384 85.863 73.686 85.92 C 74.079 85.996 74.531 86.082 74.531 86.807 L 74.531 98.821 C 74.531 99.54 74.531 99.648 73.856 99.91 L 73.843 99.914 C 73.566 100.021 73.333 100.11 73.333 100.454 C 73.333 100.933 73.725 100.933 74.117 100.933 L 76.729 100.933 C 77.012 100.933 77.316 100.824 77.316 100.497 C 77.316 100.115 77 100.011 76.693 99.912 C 76.669 99.904 76.644 99.896 76.62 99.888 C 76.566 99.868 76.511 99.849 76.456 99.83 C 76.158 99.729 75.87 99.631 75.815 99.3 L 75.815 86.873 L 76.25 87.961 L 78.383 93.228 L 80.712 98.212 L 80.733 98.255 C 80.861 98.514 81.035 98.865 81.365 98.865 C 81.703 98.865 81.986 98.283 82.132 97.984 C 82.146 97.955 82.159 97.93 82.17 97.907 L 83.802 94.534 L 86.936 87.221 L 86.936 98.625 C 86.936 98.783 86.942 98.915 86.946 99.028 C 86.968 99.555 86.972 99.659 86.327 99.91 L 86.286 99.925 C 86.023 100.025 85.826 100.101 85.826 100.432 C 85.826 100.889 86.24 100.933 86.588 100.933 L 90.385 100.933 C 90.415 100.933 90.44 100.932 90.46 100.932 C 90.759 100.947 91.023 100.916 91.023 100.916 L 92.285 100.916 C 92.285 100.916 93.591 101.105 93.591 100.473 C 93.591 100.205 93.397 100.102 93.168 99.981 C 92.838 99.806 92.437 99.593 92.437 98.797 C 92.437 98.279 92.79 97.278 93.09 96.424 C 93.232 96.022 93.362 95.652 93.438 95.38 L 100.512 95.38 L 100.664 95.794 C 100.684 95.846 100.711 95.913 100.742 95.992 L 100.742 95.993 C 100.85 96.266 101.016 96.687 101.184 97.165 L 101.186 97.167 C 101.564 98.162 102.251 99.246 102.915 99.739 C 103.464 100.133 104.173 100.608 104.993 100.885 C 105.895 101.19 106.916 101.279 107.657 101.279 C 109.224 101.279 110.748 100.931 111.988 99.929 C 113.077 99.037 113.795 97.688 113.795 96.251 C 113.795 94.989 113.251 93.792 112.25 92.986 C 111.401 92.333 110.138 91.985 109.116 91.746 L 107.135 91.289 C 105.633 90.919 104.24 90.244 104.24 88.481 C 104.24 86.827 105.807 85.804 107.353 85.804 C 109.667 85.804 110.767 87.04 111.428 87.783 C 111.712 88.101 111.914 88.329 112.097 88.329 C 112.456 88.329 112.45 87.891 112.446 87.633 C 112.446 87.61 112.446 87.587 112.446 87.567 L 112.446 87.567 C 112.446 87.284 112.446 86.566 112.38 86.305 C 112.293 86.043 112.141 85.913 111.901 85.761 C 110.77 85.042 109.224 84.694 107.897 84.694 C 106.439 84.694 105.111 84.999 104.001 85.956 C 103 86.784 102.369 87.981 102.369 89.286 C 102.369 92.374 105.1 92.992 107.671 93.573 C 109.958 94.091 112.119 94.58 112.119 96.752 C 112.119 99.037 109.943 100.147 107.919 100.147 C 106.809 100.147 105.095 99.59 104.262 98.847 C 103.91 98.534 103.432 97.748 103.228 97.269 L 103.08 96.86 C 101.97 93.356 100.251 89.221 98.401 86.065 C 98.387 86.042 98.37 86.012 98.349 85.976 C 98.135 85.599 97.559 84.585 97.182 84.585 C 96.886 84.585 96.464 85.374 96.177 85.91 C 96.164 85.935 96.151 85.959 96.138 85.982 C 96.123 86.011 96.108 86.039 96.094 86.065 C 94.353 89.221 92.633 93.356 91.414 96.86 L 90.631 99.102 C 90.457 99.538 90.348 99.668 89.956 99.929 L 89.947 99.935 C 89.936 99.943 89.926 99.95 89.915 99.957 C 89.86 99.94 89.802 99.925 89.743 99.91 L 89.742 99.91 C 89.714 99.903 89.685 99.895 89.657 99.888 C 89.636 99.882 89.614 99.876 89.591 99.87 L 89.552 99.86 L 89.511 99.85 C 89.215 99.775 88.852 99.684 88.852 99.387 L 88.852 87.156 C 88.852 86.35 89.004 86.22 89.744 86.024 C 90.005 85.959 90.332 85.872 90.332 85.545 C 90.332 85.045 90.092 85.001 89.722 85.001 L 86.915 85.001 C 86.442 85.001 86.28 85.447 86.135 85.844 L 86.109 85.915 Z  M 129.1 92.465 L 128.799 91.778 L 125.005 83.503 L 121.045 92.465 L 129.1 92.465 Z  M 124.026 82.004 L 124.062 81.937 C 124.424 81.259 124.959 80.258 125.334 80.258 C 125.81 80.258 126.535 81.534 126.807 82.012 C 126.834 82.059 126.856 82.098 126.874 82.128 C 129.211 86.114 131.383 91.338 132.784 95.764 L 133.857 98.733 C 134.077 99.283 134.297 99.448 134.819 99.723 C 135.094 99.86 135.286 99.998 135.286 100.328 C 135.286 100.935 134.703 100.934 134.242 100.933 L 134.186 100.933 L 130.778 100.933 C 130.338 100.933 129.788 100.878 129.788 100.3 C 129.788 99.877 130.133 99.739 130.48 99.599 C 130.834 99.457 131.19 99.314 131.19 98.871 C 131.19 98.348 130.008 95.132 129.733 94.417 L 129.54 93.895 L 120.605 93.895 C 120.508 94.238 120.344 94.706 120.165 95.215 L 120.165 95.215 C 119.785 96.294 119.341 97.557 119.341 98.211 C 119.341 99.216 119.848 99.485 120.263 99.706 C 120.553 99.859 120.798 99.989 120.798 100.328 C 120.798 101.008 119.958 100.968 119.403 100.941 C 119.308 100.937 119.221 100.933 119.148 100.933 L 117.554 100.933 C 117.49 100.933 117.412 100.935 117.326 100.938 C 116.746 100.959 115.767 100.994 115.767 100.3 C 115.767 99.97 115.959 99.805 116.207 99.64 C 116.702 99.31 116.839 99.146 117.059 98.596 L 118.049 95.764 C 119.588 91.338 121.76 86.114 123.96 82.128 L 123.991 82.071 L 124.026 82.004 Z  M 143.427 99.54 C 143.094 99.741 142.731 99.91 142.338 100.04 L 141.206 100.236 C 139.957 100.285 138.896 99.922 138.031 99.292 C 138.479 99.219 141.091 98.842 143.427 99.54 Z  M 144.29 98.89 C 141.189 98.007 139.007 98.214 137.356 98.709 C 135.98 97.309 135.265 95.154 135.265 93.119 C 135.265 89.702 137.093 85.784 141.011 85.784 C 144.776 85.784 146.539 89.724 146.539 92.989 C 146.539 95.138 145.855 97.444 144.29 98.89 Z  M 145.791 99.428 C 147.695 97.832 148.759 95.389 148.759 92.793 C 148.759 88.222 145.495 84.674 140.88 84.674 C 136.287 84.674 133.045 88.549 133.045 93.01 C 133.045 95.143 133.764 97.254 135.222 98.843 C 136.615 100.345 138.66 101.259 140.685 101.259 C 140.685 101.259 141.364 101.272 141.816 101.193 C 142.268 101.115 143.057 100.911 143.057 100.911 C 143.76 100.693 144.407 100.39 144.992 100.015 C 145.539 100.227 146.211 100.56 147.127 101.165 L 147.155 101.184 L 147.155 101.184 C 149.245 102.565 149.828 102.95 151.709 103.743 C 152.712 104.351 156.722 104.594 158.117 103.814 C 159.211 103.203 158.439 101.774 157.509 102.203 C 155.06 102.846 152.213 102.599 151.284 102.085 C 150.653 101.817 149.341 101.252 145.791 99.428 Z  M 151.389 93.903 C 151.389 95.361 151.389 97.037 152.259 98.277 C 153.151 99.583 154.74 100.105 155.959 100.105 C 157.526 100.105 159.246 99.518 160.116 98.125 C 160.987 96.71 160.987 94.904 160.987 93.293 L 160.987 87.243 C 160.987 86.655 160.507 86.198 160.051 86.024 L 159.998 86.003 C 159.726 85.901 159.42 85.784 159.42 85.458 C 159.42 85.088 159.746 85.023 160.051 85.001 L 162.945 85.001 C 163.272 85.023 163.511 85.153 163.511 85.501 C 163.511 85.789 163.274 85.891 163.054 85.986 C 163.025 85.998 162.996 86.011 162.967 86.024 C 162.358 86.263 162.249 86.459 162.249 87.156 L 162.249 93.489 C 162.249 95.448 162.184 97.406 160.878 99.017 C 159.594 100.584 157.439 101.259 155.481 101.259 C 154.001 101.259 152.041 100.693 150.844 99.3 C 149.56 97.798 149.43 95.883 149.43 93.99 L 149.43 86.764 C 149.43 86.288 149.249 86.209 148.921 86.067 C 148.889 86.054 148.855 86.039 148.821 86.024 L 148.761 86.003 C 148.482 85.905 148.254 85.825 148.254 85.48 C 148.254 85.023 148.667 85.001 149.038 85.001 L 151.889 85.001 C 152.237 85.001 152.673 85.023 152.673 85.48 C 152.673 85.836 152.431 85.91 152.16 85.992 L 152.128 86.002 C 151.389 86.22 151.389 86.416 151.389 87.286 L 151.389 93.903 Z  M 164.583 86.08 C 164.85 86.155 165.16 86.242 165.16 86.525 L 165.16 98.625 L 165.16 98.725 L 165.161 98.798 C 165.165 99.503 165.166 99.687 164.399 99.91 C 164.093 99.997 163.832 100.084 163.832 100.432 C 163.832 100.911 164.268 100.933 164.616 100.933 L 167.62 100.933 C 167.989 100.933 168.403 100.911 168.403 100.432 C 168.403 100.092 168.164 100.009 167.889 99.914 C 167.865 99.905 167.84 99.897 167.815 99.888 C 167.794 99.879 167.771 99.871 167.749 99.863 C 167.733 99.858 167.716 99.852 167.7 99.847 L 167.655 99.832 L 167.654 99.832 L 167.654 99.832 L 167.654 99.832 C 167.398 99.747 167.119 99.655 167.119 99.387 L 167.119 87.308 C 167.121 87.223 167.122 87.145 167.123 87.072 C 167.132 86.407 167.135 86.259 167.88 86.024 L 167.934 86.004 C 168.193 85.906 168.403 85.826 168.403 85.48 C 168.403 85.023 167.989 85.001 167.641 85.001 L 164.638 85.001 C 164.29 85.001 163.854 85.001 163.854 85.48 C 163.854 85.835 164.106 85.922 164.379 86.016 C 164.407 86.026 164.435 86.036 164.464 86.046 C 164.502 86.057 164.542 86.069 164.583 86.08 Z  M 181.174 87.678 C 181.174 87.626 181.174 87.565 181.175 87.498 C 181.179 87.198 181.184 86.781 181.131 86.568 C 181.065 86.22 180.848 86.154 180.542 86.067 C 180.502 86.055 180.461 86.043 180.421 86.031 C 180.117 85.943 179.846 85.864 179.846 85.48 C 179.846 85.11 180.129 85.001 180.434 85.001 L 183.111 85.001 C 183.438 85.001 183.742 85.131 183.742 85.501 C 183.742 85.807 183.474 85.903 183.244 85.986 L 183.198 86.002 C 183.181 86.009 183.163 86.016 183.145 86.023 C 183.121 86.033 183.096 86.043 183.07 86.052 C 182.834 86.143 182.575 86.242 182.502 86.481 C 182.447 86.662 182.453 87.129 182.456 87.407 L 182.458 87.504 L 182.458 87.547 L 182.458 100.105 C 182.458 100.157 182.459 100.214 182.461 100.273 C 182.474 100.692 182.491 101.259 181.957 101.259 C 181.663 101.259 181.47 100.873 181.359 100.65 L 181.348 100.628 C 180.79 99.513 180.076 98.481 179.364 97.453 L 179.364 97.453 C 179.048 96.997 178.733 96.541 178.432 96.079 C 178.251 95.802 178.071 95.524 177.891 95.246 C 176.05 92.404 174.198 89.547 171.859 87.068 L 171.859 98.799 C 171.859 99.387 171.881 99.67 172.511 99.844 L 172.567 99.856 C 172.932 99.936 173.208 99.997 173.208 100.432 C 173.208 100.78 172.946 100.932 172.642 100.932 L 169.682 100.932 C 169.356 100.932 169.117 100.78 169.117 100.432 C 169.117 100.084 169.356 99.975 169.639 99.909 C 170.604 99.72 170.598 99.465 170.58 98.714 C 170.578 98.602 170.575 98.478 170.575 98.342 L 170.575 87.656 C 170.575 86.829 170.575 86.111 169.617 85.915 L 169.581 85.907 L 169.534 85.897 C 169.263 85.838 168.943 85.769 168.943 85.414 C 168.943 85.066 169.291 85.001 169.573 85.001 L 172.076 85.001 C 172.685 84.979 175.624 88.788 176.538 90.007 L 177.648 91.487 C 178.845 93.075 179.999 94.925 181.174 96.841 L 181.174 87.678 Z  M 194.25 96.012 C 194.358 96.286 194.52 96.698 194.685 97.165 L 194.688 97.167 C 195.064 98.163 195.751 99.246 196.417 99.739 C 196.965 100.133 197.673 100.608 198.494 100.885 C 199.396 101.19 200.417 101.279 201.159 101.279 C 202.725 101.279 204.249 100.931 205.489 99.929 C 206.577 99.037 207.295 97.687 207.295 96.251 C 207.295 94.989 206.752 93.792 205.75 92.986 C 204.901 92.333 203.64 91.985 202.617 91.746 L 200.636 91.289 C 199.134 90.919 197.741 90.244 197.741 88.481 C 197.741 86.827 199.308 85.804 200.853 85.804 C 203.168 85.804 204.268 87.04 204.929 87.782 L 204.929 87.783 C 205.212 88.101 205.415 88.329 205.598 88.329 C 205.957 88.329 205.951 87.891 205.947 87.634 C 205.947 87.61 205.947 87.587 205.947 87.567 C 205.947 87.284 205.947 86.566 205.882 86.305 C 205.794 86.043 205.642 85.913 205.402 85.761 C 204.272 85.042 202.725 84.694 201.398 84.694 C 199.94 84.694 198.611 84.999 197.502 85.956 C 196.502 86.783 195.87 87.981 195.87 89.286 C 195.87 92.374 198.601 92.992 201.173 93.573 C 203.46 94.091 205.621 94.58 205.621 96.752 C 205.621 99.037 203.444 100.147 201.42 100.147 C 200.31 100.147 198.596 99.59 197.762 98.847 C 197.411 98.533 196.933 97.746 196.727 97.268 L 196.58 96.861 C 195.47 93.356 193.751 89.221 191.901 86.066 L 191.882 86.032 L 191.852 85.978 C 191.639 85.604 191.06 84.586 190.682 84.586 C 190.386 84.586 189.964 85.374 189.677 85.911 L 189.633 85.993 L 189.594 86.066 C 187.854 89.221 186.133 93.356 184.914 96.861 L 184.131 99.102 C 183.957 99.538 183.847 99.668 183.456 99.929 C 183.26 100.06 183.108 100.191 183.108 100.452 C 183.108 101.001 183.883 100.973 184.342 100.957 C 184.41 100.954 184.471 100.952 184.522 100.952 L 185.785 100.952 C 185.843 100.952 185.912 100.956 185.987 100.959 C 186.426 100.98 187.092 101.012 187.092 100.473 C 187.092 100.206 186.898 100.102 186.668 99.981 C 186.339 99.806 185.937 99.593 185.937 98.798 C 185.937 98.278 186.292 97.271 186.594 96.414 C 186.734 96.016 186.863 95.65 186.94 95.381 L 194.013 95.381 L 194.165 95.794 C 194.186 95.851 194.215 95.924 194.25 96.012 Z  M 193.424 93.705 L 193.664 94.249 L 187.287 94.249 L 190.421 87.154 L 193.424 93.705 Z  M 100.164 94.249 L 99.924 93.705 L 96.921 87.154 L 93.787 94.249 L 100.164 94.249 Z " fill-rule="evenodd" fill="rgb(245,190,73)"/></g></svg>