<svg width="381" height="40" viewBox="0 0 381 40" fill="none" xmlns="http://www.w3.org/2000/svg">
<path fill-rule="evenodd" clip-rule="evenodd" d="M18.9765 0L19.1383 0.177438C19.1383 0.177438 17.003 2.35454 19.2388 5.0124L25.5777 11.2414C27.9612 13.9847 27.9612 18.2434 25.1849 21.0156L21.3192 24.7998C18.9895 26.8044 14.727 27.2342 11.802 24.5623L7.82164 20.5733C5.76614 18.2925 5.34015 14.2958 7.51889 11.5154C8.19042 10.692 12.4983 6.43744 12.4983 6.43744L12.636 6.56908C10.0069 9.12652 10.1899 12.8741 12.4246 15.0861C14.6869 17.3285 20.5575 23.0547 20.5575 23.0547C21.1927 22.5407 22.4939 18.6827 20.2136 16.2082L16.1266 12.1705C14.152 9.93095 13.5203 5.99323 16.061 2.94846L18.9765 0ZM16.7531 40H10.4097L9.60737 32.2694L1.39243 29.681H16.7531H32.0482L23.8333 32.3012L22.9981 40H16.7531ZM33.4488 27.4656V28.9379H0V27.4656H33.4488ZM48.4297 13.726C46.2484 13.7928 44.4012 14.85 44.4012 17.2073C44.4012 19.8043 46.4532 20.7984 48.6656 21.343L51.5833 22.0171C53.0903 22.3692 54.9501 22.882 56.2006 23.8442C57.6753 25.0306 58.4766 26.7945 58.4766 28.6537C58.4766 30.7698 57.4186 32.7573 55.8157 34.0723C53.9881 35.5473 51.7435 36.0607 49.4349 36.0607C47.3509 36.0607 45.2027 35.6432 43.5035 34.4246C42.3812 33.5915 40.7463 31.8605 40.7463 30.3529C40.7463 29.8403 41.0348 29.3275 41.6119 29.3275C42.1567 29.3275 42.4455 29.7435 42.7018 30.1931C43.3752 31.3789 43.9845 32.3406 45.1709 33.1104C46.5495 34.0084 48.1844 34.3935 49.8198 34.3935C52.8015 34.3935 56.0081 32.7573 56.0081 29.3914C56.0081 26.1914 52.825 25.4712 49.4556 24.7089C45.6674 23.8517 41.6437 22.9413 41.6437 18.3935C41.6437 16.4699 42.5736 14.7064 44.0484 13.4879C45.3354 12.547 46.726 12.2358 48.2114 12.1859L48.2437 12.1563H69.0108C69.0392 12.1604 69.0675 12.1638 69.0956 12.1671C69.2438 12.1848 69.3862 12.2018 69.493 12.3085C69.7016 12.5402 69.8891 13.9056 69.9586 14.411L69.9586 14.4112C69.9651 14.459 69.9706 14.4991 69.975 14.5298C70.0259 14.7329 70.0767 14.9867 70.0767 15.1898C70.0767 15.4689 69.9245 15.7227 69.6199 15.7227C69.3348 15.7227 69.0877 15.4955 68.8783 15.3028L68.833 15.2613C68.8158 15.2455 68.7988 15.2301 68.782 15.2153L68.7438 15.1849L68.6121 15.0799C67.9893 14.5827 67.6408 14.3044 66.7768 14.0476C66.193 13.8699 65.2031 13.743 64.594 13.743C63.2209 13.743 63.2216 14.2402 63.2232 15.3493L63.2234 15.4689V28.9343C63.2234 29.2788 63.6183 29.395 63.9378 29.489C63.9714 29.4989 64.0042 29.5085 64.0356 29.5181C64.0622 29.527 64.0885 29.5356 64.1145 29.5441C64.4608 29.6575 64.7462 29.7509 64.7462 30.1524C64.7462 30.7111 64.2642 30.7365 63.8327 30.7365H60.3043C59.8728 30.7365 59.3906 30.6856 59.3906 30.1524C59.3906 29.7463 59.6949 29.6452 60.0504 29.5436C60.9457 29.2841 60.9444 29.069 60.9396 28.2479L60.939 28.1359L60.9389 28.0458V15.3167C60.9389 15.2296 60.9398 15.1456 60.9408 15.0648C60.9506 14.2286 60.9563 13.743 59.8221 13.743C59.3685 13.743 51.9925 13.7316 48.4297 13.726ZM65.3023 29.5436C65.3023 28.7823 65.9116 28.2233 66.6474 28.2233C67.4344 28.2233 68.0183 28.8329 68.0183 29.6198C68.0183 30.3556 67.3584 30.9392 66.6474 30.9392C65.8607 30.9392 65.3023 30.3301 65.3023 29.5436ZM84.5371 34.0027C84.1339 33.8838 83.6375 33.7374 83.6375 33.3026V15.9246L83.6373 15.7736C83.6352 14.3727 83.6343 13.7442 85.3687 13.7442C86.1382 13.7442 87.3887 13.9048 88.1262 14.1293C89.2171 14.4533 89.6573 14.8047 90.4434 15.4323L90.5546 15.521L90.659 15.604C90.6978 15.6385 90.7378 15.6754 90.7789 15.7133C91.0437 15.9572 91.3564 16.2452 91.717 16.2452C92.1021 16.2452 92.2945 15.9246 92.2945 15.572C92.2945 15.3153 92.2302 14.9947 92.1664 14.7384C92.1021 14.2897 91.8456 12.6223 91.557 12.3017C91.4221 12.167 91.2423 12.1454 91.0552 12.123C91.0196 12.1187 90.9836 12.1144 90.9477 12.1093H73.1528C72.4924 12.1093 72.328 13.8106 72.254 14.5761C72.2418 14.7023 72.232 14.803 72.2229 14.8665C72.2136 14.9318 72.2016 14.9998 72.1892 15.0697L72.1891 15.0703V15.0703C72.159 15.2407 72.1268 15.4225 72.1268 15.604C72.1268 15.9889 72.3193 16.3415 72.768 16.3415C73.0813 16.3415 73.3947 16.044 73.6387 15.8123C73.6945 15.7595 73.7465 15.71 73.7942 15.6683C74.7878 14.8345 75.3653 14.3535 76.6796 14.0652C77.4493 13.9048 78.5394 13.7442 79.341 13.7442C80.7737 13.7442 80.7665 14.3575 80.7541 15.4138C80.7529 15.5159 80.7516 15.622 80.7516 15.7322V32.1806C80.7516 32.2706 80.7521 32.3556 80.7526 32.436C80.7587 33.473 80.7603 33.7451 79.6297 34.0723C79.1806 34.2009 78.7961 34.3286 78.7961 34.8414C78.7961 35.5154 79.405 35.5792 79.9503 35.5792H84.407C84.952 35.5792 85.5611 35.5472 85.5611 34.8414C85.5611 34.3344 85.2001 34.2163 84.762 34.073L84.716 34.0579L84.6633 34.0404C84.6439 34.0345 84.6241 34.0285 84.604 34.0225L84.5396 34.0034L84.5379 34.0029L84.5371 34.0027ZM90.3197 33.777C90.3197 34.0898 90.6453 34.1972 90.9445 34.2958C91.0094 34.3172 91.0731 34.3382 91.1319 34.3608C91.1616 34.3714 91.191 34.3817 91.2201 34.3918C91.5399 34.5031 91.8173 34.5995 91.8173 34.9952C91.8173 35.5538 91.3348 35.5792 90.9038 35.5792H87.4006C86.9946 35.5792 86.4869 35.5538 86.4869 34.9952C86.4869 34.589 86.7915 34.488 87.147 34.3863C88.0419 34.1269 88.0406 33.9118 88.0358 33.0911V33.0904V33.0898V33.0891C88.0354 33.0259 88.035 32.9592 88.035 32.8885V18.801C88.035 18.447 87.6686 18.3439 87.356 18.2559C87.3101 18.2429 87.2653 18.2303 87.223 18.2173C87.1857 18.204 87.1481 18.1912 87.1107 18.1785C86.7918 18.0701 86.4869 17.9665 86.4869 17.5575C86.4869 16.9989 87.0197 16.9989 87.4261 16.9989H90.9288C91.3348 16.9989 91.8173 17.0245 91.8173 17.5575C91.8173 17.9612 91.5728 18.0537 91.271 18.1679L91.2079 18.1919C90.3167 18.4809 90.3171 18.6557 90.3195 19.5412L90.3197 19.6895V24.8165H100.726V18.7757C100.726 18.3968 100.249 18.2945 99.8935 18.2184L99.8884 18.2173C99.8692 18.2104 99.85 18.2037 99.8308 18.1971L99.7899 18.183C99.4703 18.0729 99.1776 17.9721 99.1776 17.5575C99.1776 17.0245 99.66 16.9989 100.066 16.9989H103.67C104.077 16.9989 104.559 17.0245 104.559 17.5575C104.559 17.9889 104.28 18.0902 103.924 18.1919C103.004 18.4517 103.005 18.6672 103.01 19.4919C103.01 19.5542 103.011 19.62 103.011 19.6895V33.5486C103.011 33.9288 103.138 34.0815 103.493 34.2341L103.772 34.3608L104.001 34.488C104.043 34.5091 104.087 34.5288 104.13 34.5484C104.347 34.6463 104.559 34.7416 104.559 34.9952C104.559 35.5538 104.077 35.5792 103.67 35.5792H100.091C99.66 35.5792 99.1776 35.5538 99.1776 34.9952C99.1776 34.589 99.4824 34.488 99.8124 34.3863C100.733 34.1264 100.731 33.911 100.727 33.0866V33.0853V33.0839V33.0826V33.0811V33.0796V33.078V33.0763V33.0746C100.726 33.0157 100.726 32.9538 100.726 32.8885V26.1363H90.3197V33.777ZM119.621 26.4918C119.621 28.396 119.164 30.4012 118.047 31.9496C116.829 33.5996 115.001 34.6399 112.945 34.6399C110.915 34.6399 109.188 33.5996 108.072 31.9751C106.929 30.3248 106.498 28.3198 106.498 26.3652C106.498 24.4611 106.904 22.5323 107.945 20.9335C109.062 19.1565 110.864 17.9635 112.996 17.9635C115.001 17.9635 116.854 19.0043 118.022 20.6288C119.189 22.2533 119.621 24.5127 119.621 26.4918ZM103.908 26.3908C103.908 28.9796 104.594 31.3654 106.396 33.2694C108.097 35.0462 110.381 35.9602 112.818 35.9602C118.352 35.9602 122.21 31.8225 122.21 26.3652C122.21 23.7764 121.474 21.2884 119.646 19.4103C117.895 17.583 115.509 16.6181 112.996 16.6181C107.437 16.6181 103.908 21.0346 103.908 26.3908ZM134.389 23.9035L136.851 18.0649L136.882 17.9817C137.05 17.5183 137.24 16.9989 137.79 16.9989H141.065C141.496 16.9989 141.776 17.0494 141.776 17.6333C141.776 18.0144 141.395 18.1159 141.09 18.1918C140.227 18.4204 140.049 18.5728 140.049 19.5117V33.777C140.049 34.1234 140.474 34.2299 140.819 34.3166C140.879 34.3315 140.936 34.3459 140.988 34.3608C141.022 34.3697 141.055 34.3782 141.088 34.3867L141.088 34.3867C141.157 34.4044 141.225 34.4217 141.29 34.4416C141.306 34.4307 141.322 34.4198 141.338 34.4089C141.795 34.1044 141.922 33.9523 142.125 33.4443L143.039 30.8303C144.46 26.7438 146.465 21.9211 148.496 18.2403C148.526 18.184 148.559 18.1234 148.593 18.0597L148.594 18.0569C148.929 17.4315 149.42 16.514 149.765 16.514C150.204 16.514 150.875 17.6934 151.126 18.1339C151.15 18.1771 151.171 18.2131 151.187 18.2403C153.344 21.9211 155.349 26.7438 156.644 30.8303L156.816 31.308C157.055 31.8661 157.612 32.7817 158.022 33.1467C158.994 34.0129 160.992 34.6634 162.287 34.6634C164.648 34.6634 167.186 33.3687 167.186 30.7031C167.186 28.1701 164.666 27.6 161.999 26.9965C159 26.3179 155.814 25.5971 155.814 21.9967C155.814 20.4743 156.55 19.0778 157.718 18.1132C159.013 16.9964 160.561 16.6411 162.261 16.6411C163.81 16.6411 165.612 17.0473 166.932 17.8848C167.211 18.0627 167.389 18.2149 167.49 18.5196C167.566 18.824 167.566 19.6617 167.566 19.9915C167.566 20.0151 167.567 20.0412 167.567 20.069C167.571 20.3696 167.579 20.8799 167.16 20.8799C166.947 20.8799 166.711 20.6144 166.38 20.2429C165.609 19.3772 164.327 17.9358 161.627 17.9358C159.825 17.9358 157.997 19.1285 157.997 21.0574C157.997 23.1134 159.621 23.9008 161.373 24.3321L163.683 24.8655C164.876 25.145 166.348 25.5506 167.338 26.3116C168.506 27.251 169.14 28.6469 169.14 30.1194C169.14 31.7944 168.302 33.3687 167.033 34.4089C165.586 35.5766 163.81 35.983 161.982 35.983C161.118 35.983 159.927 35.8799 158.875 35.5238C157.919 35.2008 157.092 34.6463 156.451 34.1873C155.677 33.6121 154.875 32.3483 154.435 31.1868L154.433 31.1852C154.237 30.6292 154.044 30.1397 153.918 29.8208L153.918 29.8203C153.881 29.7268 153.85 29.648 153.827 29.5864L153.649 29.1036H145.399C145.31 29.4204 145.158 29.8516 144.993 30.3205L144.993 30.3207C144.643 31.3174 144.232 32.485 144.232 33.0891C144.232 34.0176 144.7 34.266 145.084 34.4697C145.351 34.6113 145.577 34.7314 145.577 35.0437C145.577 35.7795 144.054 35.5601 144.054 35.5601H142.582C142.582 35.5601 142.275 35.5963 141.926 35.5784C141.903 35.5791 141.874 35.5792 141.838 35.5792H137.409C137.003 35.5792 136.521 35.5284 136.521 34.9952C136.521 34.6094 136.75 34.5219 137.056 34.4051L137.105 34.3863C137.857 34.0938 137.853 33.9728 137.827 33.3581C137.822 33.2264 137.816 33.0721 137.816 32.8885V19.588L134.161 28.1166L132.257 32.0509C132.244 32.077 132.229 32.1068 132.213 32.1396C132.043 32.4888 131.712 33.1683 131.318 33.1683C130.934 33.1683 130.731 32.7593 130.582 32.4573L130.556 32.4063L127.84 26.5934L125.353 20.4507L124.845 19.1819V33.6757C124.909 34.0612 125.245 34.1752 125.592 34.2933L125.592 34.2934L125.593 34.2935C125.657 34.3152 125.721 34.3371 125.784 34.3608L125.822 34.3734L125.871 34.3894C126.228 34.5054 126.596 34.6255 126.596 35.0716C126.596 35.4519 126.241 35.5792 125.911 35.5792H122.865C122.408 35.5792 121.951 35.5792 121.951 35.0207C121.951 34.6208 122.222 34.5167 122.545 34.3922L122.561 34.3863C123.347 34.0815 123.347 33.9542 123.347 33.1167V19.1057C123.347 18.2596 122.821 18.1588 122.363 18.0712C122.01 18.0036 121.697 17.9439 121.697 17.5575C121.697 17.1513 122.002 16.9989 122.383 16.9989H125.759C126.279 16.9782 126.509 17.5888 126.687 18.0611L126.687 18.0612C126.726 18.1649 126.763 18.2619 126.8 18.344L131.572 29.7409L134.389 23.9035ZM186.637 24.9023L186.99 25.7038H177.596L182.213 15.2514L186.637 24.9023ZM181.118 13.4191L181.062 13.5241L181.037 13.5698L180.995 13.6485C178.429 18.2974 175.896 24.3895 174.101 29.5512L172.947 32.8539C172.69 33.495 172.53 33.6875 171.953 34.0723C171.664 34.2649 171.44 34.4572 171.44 34.8414C171.44 35.6511 172.581 35.6103 173.258 35.5861C173.359 35.5825 173.449 35.5793 173.524 35.5793H175.384C175.468 35.5793 175.57 35.5841 175.681 35.5894C176.327 35.6202 177.307 35.667 177.307 34.8735C177.307 34.4791 177.021 34.3275 176.684 34.1486C176.199 33.8915 175.608 33.5779 175.608 32.4051C175.608 31.6413 176.127 30.1656 176.571 28.9064L176.571 28.906C176.779 28.3145 176.97 27.7708 177.083 27.3712H187.503L187.728 27.9805C188.048 28.8141 189.427 32.5649 189.427 33.1746C189.427 33.6919 189.011 33.8589 188.599 34.0244C188.194 34.1873 187.792 34.3488 187.792 34.8414C187.792 35.5154 188.433 35.5793 188.946 35.5793H192.922L192.987 35.5794C193.524 35.5806 194.204 35.5821 194.204 34.8735C194.204 34.4892 193.98 34.3286 193.66 34.1682C193.05 33.8481 192.794 33.6556 192.538 33.0143L191.287 29.5512C189.652 24.3895 187.119 18.2974 184.393 13.6485C184.374 13.6156 184.349 13.5724 184.32 13.5209L184.318 13.517C184.003 12.9626 183.154 11.4682 182.598 11.4682C182.161 11.4682 181.54 12.6288 181.118 13.4191ZM204.705 33.1969C206.53 31.5111 207.329 28.8214 207.329 26.3143C207.329 22.5068 205.272 17.9125 200.881 17.9125C196.312 17.9125 194.18 22.4813 194.18 26.4669C194.18 28.8401 195.014 31.3535 196.619 32.9856C198.545 32.4087 201.089 32.1679 204.705 33.1969ZM206.456 33.8242C208.676 31.9634 209.916 29.1142 209.916 26.0861C209.916 20.7558 206.109 16.6181 200.729 16.6181C195.373 16.6181 191.591 21.1364 191.591 26.3398C191.591 28.827 192.428 31.2895 194.129 33.1421C195.753 34.8941 198.14 35.9602 200.5 35.9602C200.5 35.9602 201.293 35.9758 201.82 35.8838C202.347 35.7918 203.267 35.5538 203.267 35.5538C204.088 35.3002 204.842 34.9463 205.524 34.509C206.163 34.756 206.946 35.1444 208.015 35.8505L208.035 35.864L208.035 35.8641C210.481 37.4812 211.161 37.9308 213.358 38.8563C214.527 39.5661 219.203 39.8493 220.831 38.9399C222.107 38.2271 221.207 36.5603 220.121 37.0611C217.266 37.8107 213.946 37.5224 212.863 36.9236C212.127 36.6111 210.596 35.9518 206.456 33.8242ZM203.699 33.9547C200.976 33.1415 197.931 33.5807 197.406 33.6662C198.415 34.4011 199.653 34.8242 201.11 34.767L202.429 34.5383C202.888 34.3867 203.311 34.1899 203.699 33.9547ZM213.999 32.4819C212.984 31.0351 212.984 29.0808 212.984 27.3802V19.6641C212.984 18.6488 212.984 18.4205 213.847 18.1668L213.884 18.1553C214.2 18.0587 214.481 17.9726 214.481 17.5575C214.481 17.0246 213.974 16.9989 213.568 16.9989H210.243C209.811 16.9989 209.329 17.0246 209.329 17.5575C209.329 17.9603 209.594 18.0533 209.918 18.1671L209.988 18.1919C210.028 18.2096 210.066 18.2262 210.103 18.242C210.488 18.4081 210.699 18.4989 210.699 19.0548V27.4821C210.699 29.69 210.853 31.9244 212.35 33.6758C213.746 35.3002 216.03 35.9602 217.757 35.9602C220.041 35.9602 222.552 35.1729 224.052 33.3449C225.573 31.467 225.649 29.1827 225.649 26.8984V19.5118C225.649 18.6995 225.777 18.4714 226.487 18.1919C226.52 18.1768 226.555 18.1621 226.589 18.1473C226.846 18.037 227.122 17.9184 227.122 17.583C227.122 17.1765 226.843 17.0246 226.463 16.9989H223.086C222.731 17.0246 222.349 17.1006 222.349 17.532C222.349 17.9128 222.707 18.0481 223.024 18.1681L223.086 18.1919C223.618 18.395 224.179 18.9279 224.179 19.6136V26.6699C224.179 28.5487 224.179 30.655 223.162 32.3053C222.146 33.9288 220.141 34.6145 218.314 34.6145C216.893 34.6145 215.04 34.0058 213.999 32.4819ZM229.046 18.7757C229.046 18.4461 228.684 18.3449 228.373 18.2577C228.324 18.2441 228.277 18.231 228.233 18.2173C228.2 18.2056 228.167 18.1942 228.135 18.183C227.815 18.0729 227.522 17.9721 227.522 17.5575C227.522 16.9989 228.03 16.9989 228.436 16.9989H231.94C232.344 16.9989 232.827 17.0245 232.827 17.5575C232.827 17.9608 232.583 18.0535 232.283 18.1676L232.219 18.1919C231.349 18.4663 231.347 18.6377 231.335 19.4121V19.4124L231.334 19.5083L231.333 19.567L231.332 19.6165L231.33 19.6895V33.777C231.33 34.0899 231.656 34.1972 231.955 34.2959L231.956 34.2959C232.02 34.3173 232.084 34.3383 232.143 34.3608C232.173 34.3716 232.202 34.3819 232.232 34.3921L232.232 34.3922L232.232 34.3923L232.232 34.3923C232.55 34.5034 232.827 34.6002 232.827 34.9952C232.827 35.5538 232.344 35.5792 231.913 35.5792H228.412C228.005 35.5792 227.498 35.5538 227.498 34.9952C227.498 34.589 227.802 34.488 228.157 34.3863C229.053 34.1268 229.052 33.9116 229.047 33.09C229.047 33.0266 229.046 32.9595 229.046 32.8885V18.7757ZM247.724 19.9174C247.723 19.9933 247.722 20.0625 247.722 20.1214V30.807C246.35 28.5734 245.005 26.4162 243.609 24.563L242.315 22.8369C241.249 21.4155 237.821 16.9736 237.111 16.9989H234.193C233.862 16.9989 233.455 17.0751 233.455 17.4811C233.455 17.8946 233.83 17.9756 234.145 18.0436L234.146 18.0437L234.187 18.0527L234.22 18.06L234.242 18.065C235.361 18.2935 235.361 19.131 235.361 20.0959V32.5589C235.361 32.7163 235.365 32.8593 235.368 32.9896C235.388 33.8671 235.395 34.1651 234.269 34.3863C233.938 34.4625 233.659 34.589 233.659 34.9953C233.659 35.401 233.938 35.5793 234.318 35.5793H237.77C238.127 35.5793 238.431 35.401 238.431 34.9953C238.431 34.4881 238.109 34.4176 237.683 34.3243L237.618 34.3099C236.883 34.1068 236.858 33.777 236.858 33.0913V19.4103C239.591 22.306 241.754 25.6454 243.905 28.9658L243.905 28.966L244.205 29.4292L244.403 29.7349L244.523 29.9186C244.874 30.4571 245.241 30.9883 245.61 31.5204L245.61 31.5207C246.44 32.7194 247.273 33.9226 247.923 35.2238L247.935 35.2472C248.065 35.5064 248.291 35.9602 248.634 35.9602C249.257 35.9602 249.238 35.2972 249.223 34.8084C249.221 34.7395 249.219 34.6741 249.219 34.6145V19.9687L249.219 19.9278C249.219 19.8933 249.218 19.8529 249.218 19.8082V19.808V19.8078C249.214 19.4849 249.207 18.9369 249.271 18.725C249.356 18.4459 249.658 18.3303 249.935 18.2246C249.985 18.2053 250.035 18.1864 250.082 18.1668L250.136 18.1473C250.405 18.0509 250.716 17.9393 250.716 17.583C250.716 17.1513 250.361 16.9989 249.981 16.9989H246.858C246.502 16.9989 246.174 17.126 246.174 17.5575C246.174 18.0062 246.49 18.098 246.844 18.2008C246.891 18.2143 246.938 18.2279 246.985 18.2426C247.34 18.3441 247.595 18.4205 247.671 18.8267C247.733 19.0768 247.728 19.5672 247.724 19.9174ZM302.475 17.9769C302.475 18.5219 302.315 19.0669 301.674 19.0669C301.25 19.0669 301.001 18.498 300.82 18.0833C300.782 17.996 300.746 17.9156 300.713 17.8487C300.04 16.4699 299.526 15.5077 298.212 14.546C296.992 13.6804 295.583 13.2635 294.076 13.2635C291.254 13.2635 289.233 14.4178 287.471 16.5982C285.74 18.7143 284.939 21.0549 284.939 23.7801C284.939 26.0886 285.578 28.9745 286.925 30.8982C288.592 33.2387 291.094 34.2322 293.883 34.2322C296.704 34.2322 298.66 33.1104 300.647 31.1226C300.713 31.0579 300.779 30.9841 300.848 30.9075C301.12 30.6043 301.431 30.257 301.867 30.257C302.284 30.257 302.572 30.6092 302.572 31.0261C302.572 32.0842 300.167 33.9119 299.366 34.3935C297.635 35.4826 295.423 36.0607 293.371 36.0607C286.958 36.0607 281.667 31.3152 281.667 24.7416C281.667 17.8163 287.087 11.6281 294.203 11.6281C296.351 11.6281 298.403 12.1413 300.327 13.1353C300.376 13.1632 300.432 13.1945 300.493 13.2287C300.991 13.5088 301.833 13.982 302.091 14.3536C302.379 14.7702 302.444 15.2192 302.475 15.6683V17.9769ZM318.165 26.4918C318.165 28.396 317.707 30.4012 316.59 31.9496C315.372 33.5996 313.545 34.6399 311.489 34.6399C309.458 34.6399 307.733 33.5996 306.615 31.9751C305.474 30.3248 305.042 28.3198 305.042 26.3652C305.042 24.4611 305.447 22.5323 306.488 20.9335C307.605 19.1565 309.408 17.9635 311.54 17.9635C313.545 17.9635 315.397 19.0043 316.565 20.6288C317.734 22.2533 318.165 24.5127 318.165 26.4918ZM302.453 26.3908C302.453 28.9796 303.139 31.3654 304.94 33.2694C306.642 35.0462 308.926 35.9602 311.361 35.9602C316.896 35.9602 320.753 31.8225 320.753 26.3652C320.753 23.7764 320.018 21.2884 318.19 19.4103C316.438 17.583 314.052 16.6181 311.54 16.6181C305.981 16.6181 302.453 21.0346 302.453 26.3908ZM324.27 32.8603V32.861C324.255 33.2421 324.237 33.6986 324.531 33.9288C324.944 34.2332 325.874 34.2589 326.484 34.2759L326.485 34.2759C326.589 34.2787 326.683 34.2814 326.764 34.2851H328.135L330.927 34.1323C332.147 33.9542 332.55 33.8277 333.516 33.0913C333.553 33.0631 333.599 33.0263 333.65 32.9849L333.65 32.9844C333.875 32.8024 334.207 32.5335 334.454 32.5335C334.761 32.5335 334.886 32.7619 334.886 33.0412C334.886 33.2441 334.557 34.8689 334.454 35.0716C334.221 35.5871 333.748 35.5835 333.278 35.5799C333.238 35.5796 333.199 35.5793 333.16 35.5793H321.435C321.028 35.5793 320.545 35.5538 320.545 34.9953C320.545 34.6099 320.775 34.5221 321.079 34.4056L321.129 34.3863C322 34.0575 322 33.9241 321.995 33.0997V33.098V33.0962V33.0943L321.995 33.0812L321.994 32.9547L321.994 32.8886V18.7757C321.994 18.4104 321.525 18.3024 321.197 18.2267L321.156 18.2173L321.115 18.2065C320.749 18.1098 320.418 18.0226 320.418 17.5576C320.418 16.9989 320.901 16.9989 321.332 16.9989H324.784C324.82 16.9989 324.856 16.9991 324.893 16.9997C324.912 16.9989 324.944 16.9989 324.994 16.9989H329.781C330.215 16.9989 330.694 17.0245 330.694 17.5575C330.694 17.9426 330.472 18.0244 330.19 18.128C330.156 18.1404 330.122 18.1532 330.086 18.1668C329.257 18.4801 329.259 18.6158 329.271 19.3411C329.272 19.4377 329.274 19.5448 329.274 19.6641V24.9128V28.7104C329.274 28.7806 329.271 28.857 329.268 28.9366V28.9375C329.253 29.3182 329.235 29.7742 329.528 30.0046C329.925 30.2977 330.125 30.3323 330.495 30.3962C330.574 30.4099 330.661 30.425 330.76 30.4443L332.918 30.2915C334.135 30.0301 334.542 29.9033 335.507 29.1671C335.545 29.1392 335.589 29.1027 335.64 29.0618L335.64 29.0616C335.864 28.8796 336.196 28.6094 336.446 28.6094C336.75 28.6094 336.878 28.8375 336.878 29.1166C336.878 29.3197 336.547 30.9445 336.446 31.1475C336.211 31.6627 335.741 31.6591 335.27 31.6555C335.231 31.6552 335.191 31.6549 335.152 31.6549H330.713H326.43C326.023 31.6549 325.542 31.6295 325.542 31.071C325.542 30.6847 325.772 30.597 326.079 30.48L326.127 30.4618C326.995 30.1335 326.994 30 326.989 29.1767V29.1751V29.1734V29.1716C326.989 29.1068 326.988 29.0377 326.988 28.964V24.9128V18.7757C326.988 18.4089 326.518 18.3013 326.188 18.2257L326.151 18.2172L326.112 18.2068C325.888 18.1477 325.677 18.0922 325.548 17.9517C325.457 18.0312 325.333 18.0769 325.194 18.1279C325.16 18.1403 325.125 18.1531 325.09 18.1667C324.259 18.4804 324.261 18.616 324.273 19.3428C324.275 19.4389 324.276 19.5455 324.276 19.6641V32.6346C324.276 32.7043 324.273 32.78 324.27 32.8589V32.8596V32.8603ZM348.945 26.2388H339.829V31.2132C339.829 33.2948 340.033 34.2596 342.063 34.2596H345.869C347.163 34.2596 348.053 33.7006 348.942 32.8631C348.965 32.843 348.989 32.8205 349.015 32.7965L349.065 32.7488L349.077 32.7374C349.303 32.5207 349.609 32.2283 349.882 32.2283C350.133 32.2283 350.288 32.4318 350.288 32.66C350.288 32.9757 350.192 33.4686 350.111 33.8893C350.081 34.0433 350.053 34.1875 350.032 34.3099L350.013 34.4185L349.986 34.5793C349.901 35.0785 349.859 35.3229 349.714 35.4452C349.576 35.5624 349.342 35.5673 348.884 35.5767L348.764 35.5793H336.934C336.53 35.5793 336.048 35.5538 336.048 34.9952C336.048 34.589 336.328 34.488 336.654 34.3863C337.551 34.1037 337.55 33.9087 337.545 33.0928L337.544 32.9825L337.544 32.8886V19.4865C337.544 18.8773 337.469 18.3189 336.734 18.1919L336.697 18.1816C336.353 18.0847 336.048 17.9988 336.048 17.5575C336.048 17.0246 336.53 16.999 336.962 16.999H348.205C348.839 17.1514 349.043 17.7099 349.119 18.2173L349.323 19.7659C349.297 20.0196 349.144 20.1716 348.891 20.1716C348.689 20.1716 348.56 20.096 348.459 19.9688C347.773 19.1057 346.682 18.3189 345.566 18.3189H341.479C340.211 18.3189 339.728 18.8266 339.829 20.2989V24.9185H349.073C349.851 20.1038 353.95 16.6181 358.989 16.6181C360.641 16.6181 362.898 17.0495 364.371 17.862C365.554 18.5218 365.555 19.0793 365.559 20.2663V20.2726C365.56 20.4082 365.56 20.552 365.562 20.7052C365.564 20.7285 365.566 20.7543 365.569 20.7822L365.57 20.79C365.604 21.19 365.674 21.9994 365.108 21.9994C364.806 21.9994 364.655 21.7012 364.528 21.4493L364.524 21.441C364.092 20.4508 363.559 19.5371 362.644 18.9279C361.579 18.2427 360.183 17.9126 358.939 17.9126C354.169 17.9126 351.529 22.3549 351.529 26.6953C351.529 28.7515 352.136 30.6805 353.508 32.2283C354.904 33.8024 356.959 34.6654 359.065 34.6654C360.259 34.6654 361.934 34.3863 362.898 33.625C364.018 32.7364 364.067 29.852 364.067 28.5324C364.067 26.4762 363.762 26.2727 361.732 26.1716C361.352 26.1716 358.353 26.1208 357.997 26.0189C357.743 25.9178 357.667 25.7149 357.667 25.4607C357.667 25.232 357.795 25.0804 357.997 25.0039C358.295 24.9131 361.1 24.924 361.9 24.9271C361.989 24.9274 362.054 24.9277 362.087 24.9277H363.813C364.371 24.9277 365.562 24.9785 366.046 25.1055C366.352 25.1814 366.453 25.3085 366.453 25.6387L366.403 26.1971L366.174 29.065C366.174 29.8009 366.226 31.8734 366.376 32.5844C366.403 32.7109 366.428 32.9141 366.428 33.0157C366.428 33.8532 364.6 34.6654 363.939 34.9445C362.264 35.6045 360.817 35.9602 358.989 35.9602C356.478 35.9602 353.912 35.3002 351.961 33.5996C349.929 31.8225 348.939 29.2589 348.939 26.5935C348.939 26.4747 348.941 26.3565 348.945 26.2388ZM370.028 31.2132C370.028 33.2948 370.231 34.2596 372.262 34.2596H376.069C377.364 34.2596 378.254 33.7006 379.141 32.8631C379.182 32.8267 379.228 32.7831 379.277 32.7359C379.504 32.5193 379.809 32.2283 380.082 32.2283C380.334 32.2283 380.485 32.4318 380.485 32.66C380.485 32.9699 380.394 33.4506 380.314 33.8661L380.314 33.8668L380.314 33.8673L380.314 33.8682L380.314 33.8696C380.283 34.0309 380.254 34.1823 380.233 34.3099C380.216 34.405 380.201 34.4928 380.187 34.574L380.186 34.5835C380.1 35.0801 380.058 35.3234 379.913 35.4453C379.774 35.5624 379.541 35.5672 379.083 35.5767L378.963 35.5792H367.133C366.727 35.5792 366.246 35.5538 366.246 34.9952C366.246 34.589 366.526 34.488 366.856 34.3863C367.751 34.1031 367.75 33.9078 367.746 33.0872C367.745 33.0247 367.745 32.9586 367.745 32.8885V19.4863C367.745 18.8772 367.668 18.3189 366.93 18.1917L366.891 18.1805C366.552 18.0841 366.246 17.9974 366.246 17.5574C366.246 17.0244 366.727 16.9989 367.159 16.9989H378.406C379.04 17.1512 379.244 17.7097 379.318 18.2172L379.521 19.7657C379.496 20.0195 379.344 20.1715 379.092 20.1715C378.889 20.1715 378.76 20.0959 378.658 19.9686C377.974 19.1056 376.881 18.3188 375.763 18.3188H371.678C370.411 18.3188 369.928 18.8265 370.028 20.2987V24.9184H374.902C375.588 24.9184 376.069 24.893 376.601 24.4101C376.616 24.3955 376.63 24.3812 376.644 24.367L376.673 24.3367L376.674 24.336C376.813 24.1924 376.921 24.081 377.161 24.081C377.751 24.081 377.701 25.1546 377.675 25.6951V25.6954V25.6957C377.671 25.7824 377.668 25.8553 377.668 25.9079L377.67 25.9567C377.694 26.4543 377.721 27.0247 377.059 27.0247C376.83 27.0247 376.653 26.8474 376.501 26.6952C375.992 26.2388 375.688 26.2388 375.028 26.2388H370.028V31.2132ZM262.962 29.8146C263.071 30.0903 263.231 30.4958 263.4 30.9624C263.414 31.0031 263.428 31.0439 263.443 31.0848C263.453 31.1111 263.463 31.1374 263.472 31.1638L263.48 31.1853L263.481 31.1857C263.921 32.3475 264.723 33.612 265.497 34.1873C266.138 34.6463 266.965 35.2008 267.922 35.5238C268.974 35.8799 270.165 35.983 271.027 35.983C272.855 35.983 274.634 35.5766 276.079 34.4089C277.349 33.3687 278.186 31.7944 278.186 30.1194C278.186 28.6469 277.552 27.251 276.383 26.3116C275.396 25.5506 273.923 25.145 272.728 24.8655L270.419 24.3321C268.668 23.9008 267.043 23.1134 267.043 21.0574C267.043 19.1285 268.871 17.9358 270.674 17.9358C273.373 17.9358 274.656 19.3771 275.426 20.2428C275.757 20.6144 275.993 20.8799 276.207 20.8799C276.625 20.8799 276.618 20.3674 276.614 20.0671L276.614 20.0251L276.613 19.9915C276.613 19.6617 276.613 18.824 276.535 18.5196C276.435 18.2149 276.258 18.0627 275.979 17.8848C274.658 17.0473 272.855 16.6411 271.309 16.6411C269.608 16.6411 268.06 16.9964 266.764 18.1132C265.595 19.0778 264.86 20.4743 264.86 21.9967C264.86 25.5971 268.046 26.3179 271.045 26.9965C273.712 27.6 276.231 28.1701 276.231 30.7031C276.231 33.3687 273.693 34.6634 271.333 34.6634C270.037 34.6634 268.041 34.0129 267.068 33.1467C266.66 32.7825 266.104 31.8702 265.864 31.3117L265.69 30.8304C264.396 26.7438 262.392 21.9211 260.233 18.2403L260.209 18.1979L260.169 18.1293C259.916 17.6851 259.248 16.514 258.812 16.514C258.464 16.514 257.97 17.4408 257.636 18.0664L257.632 18.0748C257.6 18.133 257.571 18.1885 257.543 18.2403C255.512 21.9211 253.505 26.7438 252.084 30.8304L251.17 33.4443C250.969 33.9524 250.842 34.1044 250.384 34.4089C250.156 34.5608 249.977 34.7137 249.977 35.0183C249.977 35.6591 250.881 35.6268 251.417 35.6076C251.497 35.6047 251.569 35.6021 251.628 35.6021H253.101C253.168 35.6021 253.248 35.606 253.336 35.6102C253.847 35.6345 254.623 35.6716 254.623 35.0437C254.623 34.7314 254.396 34.6114 254.129 34.4697C253.745 34.266 253.277 34.0177 253.277 33.0892C253.277 32.4853 253.688 31.3184 254.039 30.3218C254.205 29.8524 254.357 29.4208 254.446 29.1036H262.696L262.872 29.5865C262.895 29.6467 262.926 29.7236 262.962 29.8146ZM262.01 27.1494L262.289 27.784H254.851L258.506 19.5094L262.01 27.1494ZM153.242 27.7839L152.963 27.1494L149.461 19.5094L145.805 27.7839H153.242Z" fill="white"/>
</svg>