<?xml version="1.0" encoding="UTF-8" standalone="no"?>
<!-- Generator: Gravit.io -->
<svg xmlns="http://www.w3.org/2000/svg" xmlns:xlink="http://www.w3.org/1999/xlink" style="isolation:isolate" viewBox="0 0 270 67" width="270pt" height="67pt"><defs><clipPath id="_clipPath_sB78peCo9Idri4qJSDHR3IM6vxRDjWEy"><rect width="270" height="67"/></clipPath></defs><g clip-path="url(#_clipPath_sB78peCo9Idri4qJSDHR3IM6vxRDjWEy)"><rect width="270" height="67" style="fill:rgb(114,38,61)" fill-opacity="0"/><rect x="0" y="0" width="270" height="67" transform="matrix(1,0,0,1,0,0)" fill="rgb(114,38,61)"/><g><path d=" M 31.858 1 L 32.121 1.288 C 32.121 1.288 28.651 4.826 32.284 9.145 L 42.586 19.267 C 46.459 23.725 46.459 30.645 41.946 35.15 L 35.665 41.299 C 31.879 44.556 24.953 45.255 20.2 40.913 L 13.732 34.432 C 10.391 30.725 9.699 24.231 13.24 19.712 C 14.331 18.375 21.331 11.461 21.331 11.461 L 21.555 11.675 C 17.283 15.831 17.58 21.92 21.211 25.515 C 24.888 29.158 34.427 38.464 34.427 38.464 C 35.459 37.629 37.574 31.359 33.868 27.338 L 27.227 20.777 C 24.018 17.137 22.992 10.739 27.12 5.791 L 31.858 1 Z " fill-rule="evenodd" fill="rgb(245,190,73)"/><path d=" M 28.245 66 L 17.938 66 L 16.633 53.437 L 3.285 49.231 L 28.245 49.231 L 53.099 49.231 L 39.75 53.49 L 38.393 66 L 28.245 66 Z " fill-rule="evenodd" fill="rgb(245,190,73)"/><path d=" M 55.375 45.631 L 55.375 48.024 L 1.022 48.024 L 1.022 45.631 L 55.375 45.631 Z " fill-rule="evenodd" fill="rgb(245,190,73)"/></g><g><path d=" M 137.504 39.316 C 137.504 39.789 137.365 40.262 136.808 40.262 C 136.442 40.262 136.226 39.771 136.068 39.411 C 136.035 39.334 136.004 39.264 135.974 39.205 C 135.39 38.009 134.945 37.175 133.805 36.341 C 132.748 35.59 131.525 35.228 130.218 35.228 C 127.771 35.228 126.019 36.23 124.489 38.12 C 122.988 39.956 122.292 41.986 122.292 44.35 C 122.292 46.352 122.849 48.855 124.016 50.523 C 125.463 52.553 127.632 53.415 130.051 53.415 C 132.498 53.415 134.194 52.441 135.919 50.718 C 135.974 50.662 136.03 50.599 136.089 50.534 C 136.325 50.27 136.596 49.967 136.975 49.967 C 137.337 49.967 137.587 50.273 137.587 50.634 C 137.587 51.552 135.501 53.137 134.806 53.555 C 133.305 54.5 131.386 55 129.606 55 C 124.044 55 119.456 50.884 119.456 45.184 C 119.456 39.177 124.156 33.81 130.329 33.81 C 132.192 33.81 133.972 34.255 135.64 35.117 L 135.706 35.155 L 135.786 35.199 L 135.787 35.2 L 135.788 35.2 L 135.788 35.2 C 136.22 35.444 136.948 35.853 137.17 36.174 C 137.42 36.535 137.476 36.925 137.504 37.314 L 137.504 39.316 Z " fill-rule="evenodd" fill="rgb(245,190,73)"/><path d=" M 138.516 42.483 C 138.516 44.728 139.11 46.798 140.674 48.449 C 142.148 49.99 144.13 50.783 146.243 50.783 C 151.043 50.783 154.389 47.194 154.389 42.461 C 154.389 40.215 153.75 38.058 152.165 36.429 C 150.646 34.844 148.577 34.007 146.397 34.007 C 141.576 34.007 138.516 37.838 138.516 42.483 Z " fill-rule="evenodd" fill="rgb(245,190,73)"/><path d=" M 157.445 47.899 C 157.445 47.96 157.442 48.026 157.439 48.096 C 157.426 48.426 157.41 48.821 157.665 49.021 C 158.022 49.285 158.83 49.307 159.359 49.322 C 159.45 49.324 159.532 49.326 159.602 49.33 L 160.791 49.33 L 163.212 49.197 C 164.269 49.043 164.621 48.933 165.458 48.295 C 165.491 48.271 165.53 48.239 165.573 48.203 L 165.574 48.203 C 165.768 48.045 166.057 47.811 166.273 47.811 C 166.537 47.811 166.647 48.009 166.647 48.251 C 166.647 48.427 166.361 49.836 166.273 50.012 C 166.069 50.459 165.66 50.456 165.251 50.453 L 165.194 50.453 L 165.15 50.452 L 154.979 50.452 C 154.627 50.452 154.209 50.43 154.209 49.946 C 154.209 49.611 154.408 49.535 154.674 49.433 L 154.715 49.418 C 155.469 49.132 155.468 49.017 155.464 48.302 C 155.464 48.245 155.463 48.184 155.463 48.119 L 155.463 35.879 C 155.463 35.561 155.055 35.467 154.77 35.402 L 154.737 35.394 L 154.701 35.385 C 154.385 35.301 154.098 35.225 154.098 34.822 C 154.098 34.338 154.517 34.338 154.891 34.338 L 157.885 34.338 L 157.927 34.338 C 157.944 34.338 157.962 34.338 157.979 34.338 C 157.996 34.338 158.024 34.338 158.066 34.338 L 162.219 34.338 C 162.593 34.338 163.011 34.36 163.011 34.822 C 163.011 35.156 162.818 35.227 162.573 35.317 L 162.536 35.33 L 162.5 35.344 L 162.483 35.35 C 161.763 35.622 161.765 35.74 161.776 36.371 C 161.777 36.454 161.778 36.546 161.778 36.649 L 161.778 41.201 L 161.778 44.495 C 161.778 44.556 161.776 44.623 161.773 44.692 C 161.76 45.022 161.744 45.418 161.999 45.618 C 162.343 45.872 162.516 45.901 162.837 45.957 C 162.906 45.969 162.981 45.982 163.067 45.998 L 164.939 45.866 C 165.996 45.64 166.348 45.53 167.185 44.891 C 167.203 44.878 167.223 44.862 167.245 44.844 L 167.3 44.799 L 167.3 44.799 L 167.301 44.799 L 167.301 44.799 C 167.495 44.641 167.784 44.407 167.999 44.407 C 168.264 44.407 168.374 44.605 168.374 44.847 C 168.374 45.023 168.087 46.432 167.999 46.608 C 167.796 47.055 167.386 47.052 166.978 47.049 C 166.944 47.049 166.91 47.049 166.877 47.049 L 163.026 47.049 L 159.313 47.049 C 158.961 47.049 158.542 47.027 158.542 46.542 C 158.542 46.207 158.742 46.131 159.007 46.03 L 159.049 46.014 C 159.803 45.729 159.802 45.613 159.798 44.899 C 159.798 44.842 159.797 44.781 159.797 44.715 L 159.797 41.201 L 159.797 35.879 C 159.797 35.561 159.389 35.467 159.103 35.402 L 159.071 35.394 L 159.035 35.385 C 158.842 35.334 158.66 35.285 158.547 35.164 C 158.468 35.233 158.36 35.272 158.239 35.317 L 158.238 35.317 C 158.209 35.328 158.179 35.339 158.149 35.35 C 157.43 35.622 157.432 35.74 157.442 36.371 C 157.443 36.425 157.444 36.484 157.444 36.547 C 157.445 36.58 157.445 36.614 157.445 36.649 L 157.445 47.899 Z " fill-rule="evenodd" fill="rgb(245,190,73)"/><path d=" M 178.84 42.351 L 170.934 42.351 L 170.934 46.666 C 170.934 48.471 171.11 49.308 172.871 49.308 L 176.173 49.308 C 177.296 49.308 178.067 48.823 178.837 48.097 C 178.873 48.065 178.913 48.027 178.956 47.986 C 179.153 47.798 179.417 47.546 179.652 47.546 C 179.873 47.546 180.004 47.722 180.004 47.921 C 180.004 48.194 179.922 48.619 179.852 48.984 C 179.826 49.118 179.802 49.244 179.784 49.351 C 179.769 49.436 179.756 49.514 179.744 49.586 C 179.67 50.018 179.634 50.23 179.508 50.336 C 179.388 50.438 179.185 50.442 178.786 50.45 L 178.683 50.452 L 168.424 50.452 C 168.072 50.452 167.654 50.43 167.654 49.946 C 167.654 49.594 167.896 49.506 168.182 49.418 C 168.959 49.172 168.958 49.003 168.953 48.294 C 168.953 48.239 168.953 48.181 168.953 48.119 L 168.953 36.495 C 168.953 35.967 168.887 35.482 168.248 35.372 L 168.214 35.363 C 167.919 35.279 167.654 35.204 167.654 34.822 C 167.654 34.36 168.072 34.337 168.446 34.337 L 178.199 34.337 C 178.749 34.47 178.925 34.954 178.991 35.394 L 179.168 36.737 C 179.146 36.957 179.014 37.089 178.793 37.089 C 178.618 37.089 178.507 37.023 178.419 36.913 C 177.825 36.165 176.878 35.482 175.909 35.482 L 172.365 35.482 C 171.264 35.482 170.846 35.923 170.934 37.199 L 170.934 41.206 L 178.95 41.206 C 179.625 37.03 183.179 34.007 187.552 34.007 C 188.983 34.007 190.943 34.382 192.219 35.086 C 193.244 35.657 193.246 36.14 193.251 37.165 C 193.251 37.286 193.252 37.415 193.254 37.552 C 193.256 37.575 193.258 37.601 193.26 37.629 C 193.289 37.977 193.347 38.674 192.857 38.674 C 192.594 38.674 192.462 38.411 192.351 38.191 L 192.351 38.19 C 191.977 37.331 191.515 36.539 190.722 36.011 C 189.797 35.416 188.586 35.13 187.508 35.13 C 183.369 35.13 181.08 38.983 181.08 42.747 C 181.08 44.53 181.608 46.203 182.797 47.546 C 184.008 48.911 185.791 49.66 187.618 49.66 C 188.652 49.66 190.106 49.418 190.943 48.757 C 191.911 47.987 191.955 45.485 191.955 44.34 C 191.955 42.557 191.69 42.381 189.929 42.293 C 189.6 42.293 186.999 42.249 186.692 42.161 C 186.471 42.073 186.405 41.897 186.405 41.677 C 186.405 41.478 186.515 41.346 186.692 41.28 C 186.948 41.201 189.373 41.211 190.072 41.214 L 190.238 41.214 L 191.735 41.214 C 192.219 41.214 193.254 41.258 193.672 41.368 C 193.937 41.434 194.024 41.544 194.024 41.831 L 193.981 42.315 L 193.782 44.803 C 193.782 45.441 193.827 47.238 193.959 47.855 C 193.981 47.965 194.002 48.141 194.002 48.229 C 194.002 48.955 192.417 49.66 191.845 49.902 C 190.391 50.474 189.138 50.783 187.552 50.783 C 185.373 50.783 183.149 50.21 181.454 48.735 C 179.693 47.194 178.835 44.971 178.835 42.659 C 178.835 42.556 178.836 42.453 178.84 42.351 Z " fill-rule="evenodd" fill="rgb(245,190,73)"/><path d=" M 197.124 46.666 C 197.124 48.471 197.3 49.308 199.061 49.308 L 202.363 49.308 C 203.487 49.308 204.256 48.823 205.027 48.097 C 205.053 48.074 205.082 48.047 205.112 48.018 L 205.146 47.986 C 205.343 47.798 205.607 47.546 205.842 47.546 C 206.061 47.546 206.194 47.722 206.194 47.921 C 206.194 48.193 206.112 48.616 206.042 48.979 L 206.042 48.979 C 206.016 49.115 205.991 49.243 205.973 49.351 C 205.958 49.435 205.945 49.513 205.933 49.584 C 205.859 50.017 205.823 50.23 205.698 50.336 C 205.577 50.438 205.374 50.442 204.976 50.45 L 204.873 50.452 L 194.614 50.452 C 194.262 50.452 193.843 50.43 193.843 49.946 C 193.843 49.594 194.086 49.506 194.371 49.418 C 195.148 49.172 195.147 49.003 195.143 48.294 C 195.142 48.239 195.142 48.181 195.142 48.119 L 195.142 36.495 C 195.142 35.967 195.076 35.482 194.437 35.372 L 194.403 35.362 C 194.109 35.279 193.843 35.203 193.843 34.822 C 193.843 34.36 194.262 34.337 194.636 34.337 L 204.389 34.337 C 204.939 34.47 205.115 34.954 205.181 35.394 L 205.357 36.737 C 205.335 36.957 205.203 37.089 204.983 37.089 C 204.806 37.089 204.696 37.023 204.609 36.913 C 204.015 36.165 203.067 35.482 202.099 35.482 L 198.555 35.482 C 197.454 35.482 197.035 35.923 197.124 37.199 L 197.124 41.206 L 201.35 41.206 C 201.945 41.206 202.363 41.184 202.826 40.766 C 202.847 40.745 202.866 40.724 202.885 40.705 C 203.006 40.578 203.1 40.48 203.31 40.48 C 203.822 40.48 203.778 41.41 203.757 41.88 L 203.757 41.881 C 203.753 41.956 203.75 42.019 203.75 42.065 L 203.752 42.102 C 203.774 42.534 203.8 43.033 203.222 43.033 C 203.023 43.033 202.869 42.879 202.738 42.747 C 202.297 42.351 202.033 42.351 201.461 42.351 L 197.124 42.351 L 197.124 46.666 Z " fill-rule="evenodd" fill="rgb(245,190,73)"/><path d=" M 64.839 15.179 C 64.839 13.156 66.426 12.25 68.299 12.195 C 71.356 12.199 77.672 12.209 78.061 12.209 C 79.034 12.209 79.029 12.625 79.02 13.342 C 79.019 13.411 79.018 13.484 79.018 13.558 L 79.018 24.473 L 79.019 24.568 L 79.019 24.646 C 79.023 25.35 79.024 25.535 78.257 25.757 C 77.952 25.844 77.691 25.931 77.691 26.279 C 77.691 26.737 78.104 26.78 78.474 26.78 L 81.5 26.78 C 81.87 26.78 82.283 26.758 82.283 26.279 C 82.283 25.935 82.038 25.854 81.74 25.757 L 81.674 25.735 C 81.647 25.727 81.619 25.719 81.59 25.71 L 81.59 25.71 L 81.589 25.71 L 81.589 25.71 C 81.315 25.629 80.977 25.53 80.977 25.235 L 80.977 13.689 L 80.977 13.587 C 80.976 12.636 80.975 12.209 82.153 12.209 C 82.675 12.209 83.524 12.318 84.024 12.47 C 84.764 12.69 85.063 12.929 85.597 13.354 C 85.644 13.392 85.693 13.431 85.744 13.471 L 85.771 13.496 C 85.789 13.512 85.807 13.529 85.825 13.546 C 86.005 13.711 86.217 13.907 86.462 13.907 C 86.723 13.907 86.854 13.689 86.854 13.45 C 86.854 13.275 86.81 13.058 86.767 12.884 C 86.763 12.856 86.758 12.82 86.752 12.776 C 86.691 12.339 86.531 11.177 86.353 10.979 C 86.262 10.888 86.14 10.873 86.013 10.858 C 85.989 10.855 85.964 10.852 85.94 10.848 L 68.133 10.848 L 68.105 10.874 C 66.832 10.917 65.639 11.184 64.536 11.99 C 63.272 13.035 62.474 14.547 62.474 16.197 C 62.474 20.096 65.924 20.877 69.173 21.612 C 72.061 22.265 74.791 22.883 74.791 25.626 C 74.791 28.513 72.042 29.915 69.485 29.915 C 68.083 29.915 66.681 29.585 65.498 28.815 C 64.481 28.156 63.959 27.331 63.382 26.314 C 63.162 25.929 62.914 25.572 62.447 25.572 C 61.952 25.572 61.704 26.011 61.704 26.451 C 61.704 27.743 63.107 29.228 64.069 29.943 C 65.526 30.987 67.368 31.345 69.155 31.345 C 71.134 31.345 73.059 30.905 74.626 29.64 C 76 28.513 76.908 26.809 76.908 24.994 C 76.908 23.4 76.22 21.887 74.956 20.87 C 73.884 20.046 72.289 19.606 70.997 19.303 L 68.495 18.726 C 66.598 18.259 64.839 17.406 64.839 15.179 Z " fill-rule="evenodd" fill="rgb(245,190,73)"/><path d=" M 83.913 24.625 C 83.282 24.625 82.76 25.104 82.76 25.757 C 82.76 26.432 83.239 26.954 83.913 26.954 C 84.523 26.954 85.089 26.454 85.089 25.823 C 85.089 25.148 84.588 24.625 83.913 24.625 Z " fill-rule="evenodd" fill="rgb(245,190,73)"/><path d=" M 98.481 28.981 C 98.481 29.353 98.908 29.479 99.254 29.581 L 99.314 29.599 L 99.361 29.613 L 99.421 29.633 L 99.446 29.641 C 99.821 29.764 100.131 29.865 100.131 30.3 C 100.131 30.905 99.609 30.933 99.141 30.933 L 95.32 30.933 C 94.852 30.933 94.33 30.878 94.33 30.3 C 94.33 29.86 94.66 29.75 95.045 29.64 C 96.014 29.36 96.013 29.126 96.008 28.237 C 96.007 28.168 96.007 28.095 96.007 28.018 L 96.007 13.915 C 96.007 13.821 96.008 13.73 96.009 13.643 L 96.009 13.642 L 96.009 13.642 L 96.009 13.642 C 96.02 12.736 96.026 12.211 94.797 12.211 C 94.11 12.211 93.175 12.348 92.516 12.485 C 91.388 12.733 90.894 13.145 90.041 13.86 C 90 13.896 89.955 13.938 89.908 13.984 L 89.907 13.984 C 89.698 14.183 89.43 14.437 89.162 14.437 C 88.777 14.437 88.612 14.135 88.612 13.805 C 88.612 13.649 88.639 13.494 88.665 13.348 C 88.676 13.288 88.686 13.229 88.694 13.173 C 88.702 13.118 88.71 13.032 88.721 12.925 C 88.784 12.269 88.925 10.808 89.492 10.808 L 104.75 10.808 C 104.78 10.813 104.811 10.816 104.842 10.82 C 105.002 10.839 105.156 10.858 105.272 10.973 C 105.519 11.248 105.739 12.678 105.794 13.063 C 105.849 13.283 105.904 13.558 105.904 13.778 C 105.904 14.08 105.739 14.355 105.409 14.355 C 105.1 14.355 104.832 14.108 104.605 13.899 C 104.57 13.866 104.535 13.835 104.502 13.805 C 104.438 13.754 104.376 13.705 104.317 13.657 C 103.643 13.119 103.265 12.818 102.33 12.54 C 101.698 12.348 100.626 12.211 99.966 12.211 C 98.479 12.211 98.479 12.749 98.481 13.951 L 98.481 14.08 L 98.481 28.981 Z " fill-rule="evenodd" fill="rgb(245,190,73)"/><path d=" M 104.746 29.832 C 104.49 29.747 104.211 29.655 104.211 29.387 L 104.211 22.836 L 113.134 22.836 L 113.134 28.625 C 113.134 28.685 113.134 28.741 113.134 28.794 L 113.134 28.795 C 113.139 29.502 113.139 29.687 112.35 29.91 C 112.067 29.997 111.806 30.084 111.806 30.432 C 111.806 30.911 112.22 30.933 112.59 30.933 L 115.659 30.933 C 116.007 30.933 116.42 30.911 116.42 30.432 C 116.42 30.214 116.239 30.133 116.053 30.049 L 116.053 30.049 L 116.053 30.049 C 116.015 30.032 115.978 30.015 115.942 29.997 L 115.746 29.888 L 115.506 29.779 C 115.201 29.648 115.093 29.518 115.093 29.191 L 115.093 17.308 C 115.093 17.249 115.092 17.193 115.092 17.139 L 115.092 17.138 C 115.088 16.431 115.087 16.246 115.876 16.024 C 116.181 15.937 116.42 15.85 116.42 15.48 C 116.42 15.023 116.007 15.001 115.659 15.001 L 112.568 15.001 C 112.22 15.001 111.806 15.023 111.806 15.48 C 111.806 15.836 112.057 15.922 112.332 16.016 C 112.359 16.026 112.388 16.036 112.416 16.046 L 112.42 16.047 C 112.724 16.112 113.134 16.199 113.134 16.524 L 113.134 21.704 L 104.211 21.704 L 104.211 17.308 L 104.211 17.181 C 104.209 16.422 104.208 16.272 104.973 16.024 L 105.026 16.003 C 105.285 15.905 105.495 15.826 105.495 15.48 C 105.495 15.023 105.082 15.001 104.733 15.001 L 101.73 15.001 C 101.382 15.001 100.925 15.001 100.925 15.48 C 100.925 15.831 101.186 15.92 101.46 16.012 L 101.501 16.026 C 101.519 16.033 101.538 16.039 101.556 16.046 C 101.592 16.057 101.63 16.067 101.67 16.079 C 101.938 16.154 102.252 16.243 102.252 16.546 L 102.252 28.625 L 102.252 28.725 L 102.253 28.796 L 102.253 28.797 L 102.253 28.798 L 102.253 28.798 L 102.253 28.798 C 102.257 29.503 102.258 29.687 101.491 29.91 C 101.186 29.997 100.925 30.084 100.925 30.432 C 100.925 30.911 101.36 30.933 101.708 30.933 L 104.712 30.933 C 105.082 30.933 105.495 30.911 105.495 30.432 C 105.495 30.092 105.257 30.009 104.982 29.914 C 104.957 29.905 104.932 29.897 104.907 29.888 C 104.857 29.868 104.802 29.85 104.747 29.832 L 104.746 29.832 Z " fill-rule="evenodd" fill="rgb(245,190,73)"/><path d=" M 117.996 28.952 C 116.45 27.32 115.863 25.274 115.863 23.054 C 115.863 18.461 118.888 14.674 123.654 14.674 C 125.809 14.674 127.855 15.501 129.357 17.068 C 130.924 18.679 131.555 20.812 131.555 23.032 C 131.555 27.711 128.247 31.259 123.502 31.259 C 121.413 31.259 119.454 30.475 117.996 28.952 Z " fill-rule="evenodd" fill="rgb(245,190,73)"/><path d=" M 144.109 15.915 L 141.998 20.921 L 139.582 25.927 L 135.491 16.155 C 135.459 16.084 135.428 16.001 135.394 15.912 C 135.242 15.507 135.044 14.983 134.598 15.001 L 131.703 15.001 C 131.377 15.001 131.116 15.132 131.116 15.48 C 131.116 15.811 131.384 15.863 131.686 15.92 C 132.079 15.996 132.531 16.082 132.531 16.807 L 132.531 28.821 C 132.531 29.54 132.531 29.648 131.856 29.91 L 131.843 29.914 C 131.566 30.021 131.333 30.11 131.333 30.454 C 131.333 30.933 131.725 30.933 132.117 30.933 L 134.729 30.933 C 135.012 30.933 135.316 30.824 135.316 30.497 C 135.316 30.115 134.999 30.011 134.693 29.912 C 134.669 29.904 134.644 29.896 134.62 29.888 C 134.566 29.868 134.511 29.849 134.456 29.83 C 134.158 29.729 133.87 29.631 133.815 29.3 L 133.815 16.873 L 134.25 17.961 L 136.383 23.228 L 138.712 28.212 L 138.733 28.255 C 138.861 28.514 139.035 28.865 139.365 28.865 C 139.703 28.865 139.986 28.283 140.132 27.983 C 140.146 27.955 140.159 27.93 140.17 27.907 L 141.802 24.534 L 144.936 17.221 L 144.936 28.625 C 144.936 28.783 144.942 28.915 144.946 29.028 C 144.968 29.555 144.972 29.659 144.327 29.91 L 144.286 29.925 C 144.023 30.025 143.826 30.101 143.826 30.432 C 143.826 30.889 144.24 30.933 144.588 30.933 L 148.385 30.933 C 148.415 30.933 148.44 30.932 148.46 30.932 C 148.759 30.947 149.022 30.916 149.022 30.916 L 150.285 30.916 C 150.285 30.916 151.591 31.104 151.591 30.473 C 151.591 30.205 151.396 30.102 151.168 29.981 C 150.838 29.806 150.437 29.593 150.437 28.797 C 150.437 28.279 150.789 27.278 151.09 26.424 C 151.232 26.022 151.362 25.652 151.438 25.38 L 158.512 25.38 L 158.664 25.794 C 158.684 25.846 158.711 25.913 158.742 25.992 L 158.742 25.993 C 158.85 26.266 159.016 26.687 159.184 27.165 L 159.186 27.166 C 159.564 28.162 160.251 29.246 160.915 29.739 C 161.464 30.133 162.173 30.608 162.993 30.885 C 163.895 31.19 164.916 31.279 165.657 31.279 C 167.224 31.279 168.748 30.93 169.988 29.929 C 171.077 29.037 171.795 27.688 171.795 26.251 C 171.795 24.989 171.251 23.792 170.25 22.986 C 169.401 22.333 168.138 21.985 167.116 21.746 L 165.135 21.289 C 163.633 20.919 162.24 20.244 162.24 18.481 C 162.24 16.827 163.807 15.804 165.353 15.804 C 167.667 15.804 168.767 17.04 169.428 17.783 C 169.712 18.101 169.914 18.329 170.097 18.329 C 170.456 18.329 170.45 17.891 170.446 17.633 C 170.446 17.61 170.446 17.587 170.446 17.567 L 170.446 17.567 C 170.446 17.284 170.446 16.566 170.38 16.305 C 170.293 16.043 170.141 15.913 169.901 15.76 C 168.77 15.042 167.224 14.694 165.897 14.694 C 164.439 14.694 163.111 14.999 162.001 15.956 C 161 16.784 160.368 17.981 160.368 19.286 C 160.368 22.373 163.1 22.992 165.671 23.573 C 167.958 24.091 170.119 24.58 170.119 26.752 C 170.119 29.037 167.943 30.147 165.919 30.147 C 164.809 30.147 163.095 29.59 162.262 28.847 C 161.91 28.534 161.432 27.748 161.228 27.269 L 161.08 26.86 C 159.97 23.356 158.251 19.221 156.401 16.065 C 156.387 16.042 156.37 16.012 156.349 15.976 C 156.135 15.599 155.559 14.585 155.182 14.585 C 154.886 14.585 154.464 15.374 154.177 15.91 C 154.164 15.935 154.151 15.959 154.138 15.982 C 154.123 16.011 154.108 16.039 154.094 16.065 C 152.353 19.221 150.633 23.356 149.414 26.86 L 148.631 29.102 C 148.457 29.537 148.348 29.668 147.956 29.929 L 147.947 29.935 C 147.936 29.943 147.925 29.95 147.915 29.957 C 147.86 29.94 147.802 29.925 147.743 29.91 L 147.742 29.91 C 147.714 29.903 147.685 29.895 147.657 29.888 C 147.636 29.882 147.614 29.876 147.591 29.87 L 147.552 29.86 L 147.511 29.85 C 147.215 29.775 146.852 29.684 146.852 29.387 L 146.852 17.156 C 146.852 16.35 147.004 16.22 147.744 16.024 C 148.005 15.959 148.331 15.872 148.331 15.545 C 148.331 15.045 148.092 15.001 147.722 15.001 L 144.914 15.001 C 144.442 15.001 144.28 15.447 144.135 15.844 L 144.109 15.915 Z " fill-rule="evenodd" fill="rgb(245,190,73)"/><path d=" M 182.026 12.004 L 182.062 11.937 C 182.424 11.259 182.959 10.258 183.334 10.258 C 183.81 10.258 184.535 11.534 184.807 12.012 C 184.834 12.059 184.856 12.098 184.874 12.128 C 187.211 16.114 189.383 21.338 190.784 25.764 L 191.857 28.733 C 192.077 29.283 192.297 29.448 192.819 29.723 C 193.094 29.86 193.286 29.998 193.286 30.328 C 193.286 30.935 192.703 30.934 192.242 30.933 L 192.186 30.933 L 188.778 30.933 C 188.338 30.933 187.788 30.878 187.788 30.3 C 187.788 29.877 188.133 29.739 188.48 29.599 C 188.834 29.457 189.19 29.314 189.19 28.871 C 189.19 28.348 188.008 25.132 187.733 24.417 L 187.54 23.895 L 178.605 23.895 C 178.508 24.238 178.344 24.706 178.165 25.215 L 178.165 25.215 C 177.785 26.294 177.341 27.557 177.341 28.211 C 177.341 29.216 177.848 29.485 178.263 29.706 C 178.553 29.859 178.798 29.989 178.798 30.328 C 178.798 31.008 177.958 30.968 177.403 30.941 C 177.308 30.937 177.221 30.933 177.148 30.933 L 175.554 30.933 C 175.49 30.933 175.412 30.935 175.326 30.938 C 174.746 30.959 173.767 30.994 173.767 30.3 C 173.767 29.97 173.959 29.805 174.207 29.64 C 174.702 29.31 174.839 29.146 175.059 28.596 L 176.049 25.764 C 177.588 21.338 179.76 16.114 181.96 12.128 L 181.991 12.071 L 182.026 12.004 Z " fill-rule="evenodd" fill="rgb(245,190,73)"/><path d=" M 201.427 29.54 C 201.094 29.741 200.731 29.91 200.338 30.04 L 199.206 30.236 C 197.957 30.285 196.896 29.922 196.031 29.292 C 196.479 29.219 199.091 28.842 201.427 29.54 Z " fill-rule="evenodd" fill="rgb(245,190,73)"/><path d=" M 203.791 29.428 C 205.695 27.832 206.759 25.389 206.759 22.793 C 206.759 18.222 203.495 14.674 198.88 14.674 C 194.287 14.674 191.045 18.549 191.045 23.01 C 191.045 25.143 191.764 27.254 193.222 28.843 C 194.615 30.345 196.66 31.259 198.685 31.259 C 198.685 31.259 199.364 31.272 199.816 31.193 C 200.268 31.115 201.057 30.911 201.057 30.911 C 201.76 30.693 202.407 30.39 202.992 30.015 C 203.539 30.227 204.211 30.56 205.127 31.165 L 205.155 31.184 L 205.155 31.184 C 207.245 32.565 207.828 32.95 209.709 33.743 C 210.712 34.351 214.722 34.594 216.117 33.814 C 217.211 33.203 216.439 31.774 215.509 32.203 C 213.06 32.846 210.213 32.599 209.284 32.085 C 208.653 31.817 207.341 31.252 203.791 29.428 Z " fill-rule="evenodd" fill="rgb(245,190,73)"/><path d=" M 209.389 23.902 C 209.389 25.361 209.389 27.037 210.259 28.277 C 211.151 29.583 212.74 30.105 213.959 30.105 C 215.526 30.105 217.246 29.518 218.116 28.125 C 218.987 26.71 218.987 24.904 218.987 23.293 L 218.987 17.243 C 218.987 16.655 218.507 16.198 218.051 16.024 L 217.998 16.003 C 217.726 15.9 217.42 15.784 217.42 15.458 C 217.42 15.088 217.746 15.022 218.051 15.001 L 220.945 15.001 C 221.272 15.022 221.511 15.153 221.511 15.501 C 221.511 15.789 221.274 15.891 221.054 15.985 C 221.025 15.998 220.996 16.011 220.967 16.024 C 220.358 16.263 220.249 16.459 220.249 17.156 L 220.249 23.489 C 220.249 25.448 220.184 27.406 218.878 29.017 C 217.594 30.584 215.439 31.259 213.481 31.259 C 212.001 31.259 210.041 30.693 208.844 29.3 C 207.56 27.798 207.43 25.883 207.43 23.99 L 207.43 16.764 C 207.43 16.288 207.249 16.209 206.921 16.067 C 206.889 16.053 206.855 16.039 206.821 16.024 L 206.761 16.003 C 206.482 15.905 206.254 15.825 206.254 15.48 C 206.254 15.022 206.667 15.001 207.038 15.001 L 209.889 15.001 C 210.237 15.001 210.673 15.022 210.673 15.48 C 210.673 15.836 210.431 15.91 210.16 15.992 L 210.128 16.002 C 209.389 16.22 209.389 16.415 209.389 17.286 L 209.389 23.902 Z " fill-rule="evenodd" fill="rgb(245,190,73)"/><path d=" M 222.583 16.08 C 222.85 16.155 223.16 16.242 223.16 16.524 L 223.16 28.625 L 223.16 28.725 L 223.161 28.798 C 223.165 29.503 223.166 29.687 222.399 29.91 C 222.093 29.997 221.832 30.084 221.832 30.432 C 221.832 30.911 222.268 30.933 222.616 30.933 L 225.62 30.933 C 225.989 30.933 226.403 30.911 226.403 30.432 C 226.403 30.092 226.164 30.009 225.889 29.914 C 225.865 29.905 225.84 29.897 225.815 29.888 C 225.794 29.879 225.771 29.871 225.749 29.863 C 225.733 29.858 225.716 29.852 225.7 29.847 L 225.655 29.832 L 225.654 29.832 L 225.654 29.832 L 225.654 29.832 C 225.398 29.747 225.119 29.655 225.119 29.387 L 225.119 17.308 C 225.121 17.223 225.122 17.145 225.123 17.072 C 225.132 16.407 225.135 16.259 225.88 16.024 L 225.934 16.004 C 226.193 15.906 226.403 15.826 226.403 15.48 C 226.403 15.023 225.989 15.001 225.641 15.001 L 222.638 15.001 C 222.29 15.001 221.854 15.001 221.854 15.48 C 221.854 15.835 222.106 15.922 222.379 16.016 C 222.407 16.026 222.435 16.035 222.464 16.046 C 222.502 16.057 222.542 16.068 222.583 16.08 Z " fill-rule="evenodd" fill="rgb(245,190,73)"/><path d=" M 239.174 17.678 C 239.174 17.626 239.174 17.565 239.175 17.498 C 239.179 17.198 239.184 16.781 239.131 16.568 C 239.065 16.22 238.848 16.154 238.542 16.067 C 238.502 16.055 238.461 16.043 238.421 16.031 C 238.117 15.943 237.846 15.864 237.846 15.48 C 237.846 15.11 238.129 15.001 238.434 15.001 L 241.111 15.001 C 241.438 15.001 241.742 15.131 241.742 15.501 C 241.742 15.807 241.474 15.903 241.244 15.985 L 241.198 16.002 C 241.181 16.009 241.163 16.016 241.145 16.023 C 241.121 16.033 241.096 16.043 241.07 16.052 C 240.834 16.143 240.575 16.242 240.502 16.481 C 240.447 16.662 240.453 17.129 240.456 17.407 L 240.458 17.504 L 240.458 17.547 L 240.458 30.105 C 240.458 30.157 240.459 30.214 240.461 30.273 C 240.474 30.692 240.491 31.259 239.957 31.259 C 239.663 31.259 239.47 30.872 239.359 30.65 L 239.348 30.628 C 238.79 29.512 238.076 28.481 237.364 27.453 L 237.364 27.453 C 237.048 26.997 236.733 26.541 236.432 26.079 C 236.251 25.802 236.071 25.524 235.891 25.246 C 234.05 22.404 232.198 19.547 229.859 17.068 L 229.859 28.799 C 229.859 29.387 229.881 29.67 230.511 29.844 L 230.567 29.856 C 230.932 29.936 231.208 29.997 231.208 30.432 C 231.208 30.78 230.946 30.932 230.642 30.932 L 227.682 30.932 C 227.356 30.932 227.117 30.78 227.117 30.432 C 227.117 30.084 227.356 29.975 227.639 29.909 C 228.604 29.72 228.598 29.465 228.58 28.714 C 228.578 28.602 228.575 28.478 228.575 28.342 L 228.575 17.656 C 228.575 16.829 228.575 16.111 227.617 15.915 L 227.581 15.907 L 227.534 15.897 C 227.263 15.838 226.943 15.769 226.943 15.414 C 226.943 15.066 227.291 15.001 227.573 15.001 L 230.076 15.001 C 230.685 14.979 233.624 18.788 234.538 20.007 L 235.648 21.487 C 236.845 23.075 237.999 24.925 239.174 26.841 L 239.174 17.678 Z " fill-rule="evenodd" fill="rgb(245,190,73)"/><path d=" M 252.25 26.012 C 252.358 26.286 252.52 26.698 252.685 27.165 L 252.688 27.167 C 253.064 28.163 253.751 29.246 254.417 29.739 C 254.965 30.133 255.673 30.608 256.494 30.885 C 257.396 31.19 258.417 31.279 259.159 31.279 C 260.725 31.279 262.249 30.93 263.489 29.929 C 264.577 29.037 265.295 27.687 265.295 26.251 C 265.295 24.989 264.752 23.792 263.75 22.986 C 262.901 22.333 261.64 21.985 260.617 21.746 L 258.636 21.289 C 257.134 20.919 255.741 20.244 255.741 18.481 C 255.741 16.827 257.308 15.804 258.853 15.804 C 261.168 15.804 262.268 17.04 262.929 17.782 L 262.929 17.783 C 263.212 18.101 263.415 18.329 263.598 18.329 C 263.957 18.329 263.951 17.891 263.947 17.633 C 263.947 17.61 263.947 17.587 263.947 17.567 C 263.947 17.284 263.947 16.566 263.882 16.304 C 263.794 16.043 263.642 15.913 263.402 15.76 C 262.272 15.042 260.725 14.694 259.398 14.694 C 257.94 14.694 256.611 14.999 255.502 15.956 C 254.502 16.783 253.87 17.981 253.87 19.286 C 253.87 22.373 256.601 22.992 259.173 23.573 C 261.46 24.091 263.621 24.58 263.621 26.752 C 263.621 29.037 261.444 30.147 259.42 30.147 C 258.31 30.147 256.596 29.59 255.762 28.847 C 255.411 28.533 254.933 27.746 254.727 27.268 L 254.58 26.861 C 253.47 23.356 251.751 19.221 249.901 16.065 L 249.882 16.032 L 249.852 15.978 C 249.639 15.604 249.06 14.586 248.682 14.586 C 248.386 14.586 247.964 15.374 247.677 15.911 L 247.633 15.993 L 247.594 16.065 C 245.854 19.221 244.133 23.356 242.914 26.861 L 242.131 29.102 C 241.957 29.538 241.847 29.668 241.456 29.929 C 241.26 30.06 241.108 30.19 241.108 30.452 C 241.108 31.001 241.883 30.973 242.342 30.957 C 242.41 30.954 242.471 30.952 242.522 30.952 L 243.785 30.952 C 243.843 30.952 243.912 30.955 243.987 30.959 C 244.426 30.98 245.092 31.012 245.092 30.473 C 245.092 30.205 244.898 30.102 244.668 29.981 C 244.339 29.806 243.937 29.593 243.937 28.798 C 243.937 28.277 244.292 27.271 244.594 26.414 C 244.734 26.016 244.863 25.65 244.94 25.381 L 252.013 25.381 L 252.165 25.794 C 252.186 25.851 252.215 25.924 252.25 26.012 Z " fill-rule="evenodd" fill="rgb(245,190,73)"/><path d=" M 127.985 27.82 C 128.943 26.492 129.335 24.773 129.335 23.141 C 129.335 21.443 128.965 19.506 127.964 18.113 C 126.963 16.72 125.374 15.828 123.654 15.828 C 121.826 15.828 120.281 16.851 119.323 18.374 C 118.431 19.745 118.083 21.4 118.083 23.032 C 118.083 24.708 118.453 26.427 119.432 27.842 C 120.39 29.235 121.87 30.127 123.611 30.127 C 125.374 30.127 126.941 29.235 127.985 27.82 Z " fill-rule="evenodd" fill="rgb(114,38,61)"/><path d=" M 187.1 22.465 L 186.799 21.778 L 183.005 13.503 L 179.045 22.465 L 187.1 22.465 Z " fill-rule="evenodd" fill="rgb(114,38,61)"/><path d=" M 202.29 28.89 C 199.189 28.007 197.007 28.214 195.356 28.709 C 193.98 27.309 193.265 25.154 193.265 23.119 C 193.265 19.702 195.093 15.784 199.011 15.784 C 202.776 15.784 204.539 19.724 204.539 22.989 C 204.539 25.138 203.855 27.444 202.29 28.89 Z " fill-rule="evenodd" fill="rgb(114,38,61)"/><path d=" M 251.424 23.705 L 251.664 24.249 L 245.287 24.249 L 248.421 17.154 L 251.424 23.705 Z " fill-rule="evenodd" fill="rgb(114,38,61)"/><path d=" M 152.143 42.571 C 152.143 44.222 151.747 45.961 150.778 47.304 C 149.722 48.735 148.136 49.638 146.353 49.638 C 144.592 49.638 143.095 48.735 142.127 47.326 C 141.136 45.895 140.762 44.156 140.762 42.461 C 140.762 40.81 141.114 39.137 142.016 37.75 C 142.985 36.209 144.548 35.174 146.397 35.174 C 148.136 35.174 149.744 36.077 150.756 37.486 C 151.769 38.894 152.143 40.854 152.143 42.571 Z " fill-rule="evenodd" fill="rgb(114,38,61)"/><path d=" M 158.164 24.249 L 157.924 23.705 L 154.921 17.154 L 151.787 24.249 L 158.164 24.249 Z " fill-rule="evenodd" fill="rgb(114,38,61)"/></g></g></svg>