<?xml version="1.0" encoding="UTF-8" standalone="no"?>
<!-- Generator: Gravit.io -->
<svg xmlns="http://www.w3.org/2000/svg" xmlns:xlink="http://www.w3.org/1999/xlink" style="isolation:isolate" viewBox="0 0 32 32" width="32pt" height="32pt"><defs><clipPath id="_clipPath_uRoOZV1lRB7ixGQPGRYnTww2nS4g1hSH"><rect width="32" height="32"/></clipPath></defs><g clip-path="url(#_clipPath_uRoOZV1lRB7ixGQPGRYnTww2nS4g1hSH)"><g><path d="M 3 0 L 29 0 C 30.656 0 32 1.344 32 3 L 32 29 C 32 30.656 30.656 32 29 32 L 3 32 C 1.344 32 0 30.656 0 29 L 0 3 C 0 1.344 1.344 0 3 0 Z" style="stroke:none;fill:#000000;stroke-miterlimit:10;"/></g><path d=" M 12.252 18.596 L 10.604 18.596 L 10.604 25.151 L 5.27 25.151 L 5.27 8 L 13.998 8 L 13.998 8 Q 16.866 8 18.429 9.05 L 18.429 9.05 L 18.429 9.05 Q 19.466 9.709 19.997 10.783 L 19.997 10.783 L 19.997 10.783 Q 20.528 11.857 20.528 13.151 L 20.528 13.151 L 20.528 13.151 Q 20.528 14.812 19.79 15.892 L 19.79 15.892 L 19.79 15.892 Q 19.051 16.972 17.501 17.68 L 17.501 17.68 L 20.602 25.151 L 14.754 25.151 L 12.252 18.596 L 12.252 18.596 Z  M 12.728 11.65 L 10.604 11.65 L 10.604 14.921 L 12.521 14.921 L 12.521 14.921 Q 13.033 14.921 13.412 14.866 L 13.412 14.866 L 13.412 14.866 Q 13.79 14.812 14.199 14.653 L 14.199 14.653 L 14.199 14.653 Q 14.608 14.494 14.828 14.146 L 14.828 14.146 L 14.828 14.146 Q 15.047 13.798 15.047 13.273 L 15.047 13.273 L 15.047 13.273 Q 15.047 12.834 14.834 12.462 L 14.834 12.462 L 14.834 12.462 Q 14.62 12.089 14.229 11.882 L 14.229 11.882 L 14.229 11.882 Q 13.753 11.65 12.728 11.65 L 12.728 11.65 L 12.728 11.65 Z  M 22.372 20.573 L 27.145 20.573 L 27.145 25.151 L 22.372 25.151 L 22.372 20.573 L 22.372 20.573 Z " fill="rgb(255,255,0)"/></g></svg>